<svg width="960" height="480" viewBox="0 0 960 480" fill="none" xmlns="http://www.w3.org/2000/svg">
<path d="M40.0742 56.8879L79.4492 34.1547L118.824 56.8879V102.354L79.4492 125.087L40.0742 102.354V56.8879Z" stroke="#2391AF" stroke-width="2"/>
<path d="M46.6582 59.3657L118.921 101.791" stroke="#2391AF" stroke-width="2"/>
<path d="M40.9609 101.966L118.348 56.9844" stroke="#2391AF" stroke-width="2"/>
<path d="M79.4512 40.043V124.427" stroke="#2391AF" stroke-width="2"/>
<path d="M80.4403 80.9003L39.9609 57.6247L80.4403 34.3491V80.9003Z" fill="#2391AF"/>
<path d="M201.498 217.9L240.873 195.166L280.248 217.9V263.366L240.873 286.099L201.498 263.366V217.9Z" stroke="#2391AF" stroke-width="2"/>
<path d="M206.889 219.187L279.151 261.612" stroke="#2391AF" stroke-width="2"/>
<path d="M202.389 262.545L276.982 219.187" stroke="#2391AF" stroke-width="2"/>
<path d="M240.875 201.055V285.439" stroke="#2391AF" stroke-width="2"/>
<path d="M240.485 240.721L200.006 217.445L240.485 194.169V240.721Z" fill="#2391AF"/>
<path d="M239.812 241.912L280.291 218.636L239.812 195.36V241.912Z" fill="#2391AF"/>
<path d="M361.221 217.9L400.596 195.166L439.971 217.9V263.366L400.596 286.099L361.221 263.366V217.9Z" stroke="#2391AF" stroke-width="2"/>
<path d="M363.039 217.996L435.302 260.421" stroke="#2391AF" stroke-width="2"/>
<path d="M362.109 262.545L436.703 219.187" stroke="#2391AF" stroke-width="2"/>
<path d="M400.598 201.055V285.439" stroke="#2391AF" stroke-width="2"/>
<path d="M399.534 240.721L440.014 217.445L399.534 194.169V240.721Z" fill="#2391AF"/>
<path d="M399.149 240.638L439.546 264.057L439.463 217.363L399.149 240.638Z" fill="#2391AF"/>
<path d="M40.0742 217.9L79.4492 195.166L118.824 217.9V263.366L79.4492 286.099L40.0742 263.366V217.9Z" stroke="#2391AF" stroke-width="2"/>
<path d="M45.4629 220.377L117.726 262.803" stroke="#2391AF" stroke-width="2"/>
<path d="M43.3438 260.164L117.937 216.806" stroke="#2391AF" stroke-width="2"/>
<path d="M79.4473 201.055V285.439" stroke="#2391AF" stroke-width="2"/>
<path d="M80.2508 240.721L39.7715 217.445L80.2508 194.169V240.721Z" fill="#2391AF"/>
<path d="M80.7437 240.638L40.3467 264.057L40.4291 217.363L80.7437 240.638Z" fill="#2391AF"/>
<path d="M40.0742 377.664L79.4492 354.931L118.824 377.664V423.131L79.4492 445.864L40.0742 423.131V377.664Z" stroke="#2391AF" stroke-width="2"/>
<path d="M45.4629 380.143L117.726 422.568" stroke="#2391AF" stroke-width="2"/>
<path d="M43.3438 422.31L117.937 378.952" stroke="#2391AF" stroke-width="2"/>
<path d="M79.4473 358.439V442.823" stroke="#2391AF" stroke-width="2"/>
<path d="M80.4403 401.677L39.9609 378.401L80.4403 355.125V401.677Z" fill="#2391AF"/>
<path d="M80.2508 398.862L39.7715 422.137L80.2508 445.413V398.862Z" fill="#2391AF"/>
<path d="M79.5542 400.404L39.1573 423.822L39.2397 377.128L79.5542 400.404Z" fill="#2391AF"/>
<path d="M201.041 377.664L240.416 354.931L279.791 377.664V423.131L240.416 445.864L201.041 423.131V377.664Z" stroke="#2391AF" stroke-width="2"/>
<path d="M207.619 380.143L279.882 422.568" stroke="#2391AF" stroke-width="2"/>
<path d="M203.117 422.31L277.711 378.952" stroke="#2391AF" stroke-width="2"/>
<path d="M240.412 360.82V445.204" stroke="#2391AF" stroke-width="2"/>
<path d="M241.407 401.677L200.928 378.401L241.407 355.125V401.677Z" fill="#2391AF"/>
<path d="M240.284 401.677L280.764 378.401L240.284 355.125V401.677Z" fill="#2391AF"/>
<path d="M241.71 400.404L201.314 423.822L201.396 377.128L241.71 400.404Z" fill="#2391AF"/>
<path d="M201.498 56.8879L240.873 34.1547L280.248 56.8879V102.354L240.873 125.087L201.498 102.354V56.8879Z" stroke="#2391AF" stroke-width="2"/>
<path d="M202.127 56.9844L279.514 102.418" stroke="#2391AF" stroke-width="2"/>
<path d="M202.387 101.532L276.98 58.1748" stroke="#2391AF" stroke-width="2"/>
<path d="M242.066 40.043V124.427" stroke="#2391AF" stroke-width="2"/>
<path d="M240.07 80.9003L280.549 57.6247L240.07 34.3491V80.9003Z" fill="#2391AF"/>
<path d="M361.221 56.8879L400.596 34.1547L439.971 56.8879V102.354L400.596 125.087L361.221 102.354V56.8879Z" stroke="#2391AF" stroke-width="2"/>
<path d="M361.85 55.7939L434.112 98.2191" stroke="#2391AF" stroke-width="2"/>
<path d="M362.109 101.966L439.496 56.9844" stroke="#2391AF" stroke-width="2"/>
<path d="M400.598 35.2803V123.382" stroke="#2391AF" stroke-width="2"/>
<path d="M400.34 79.885L440.737 103.303L440.655 56.6094L400.34 79.885Z" fill="#2391AF"/>
<path d="M704.246 282.888L743.621 260.155L782.996 282.888V328.354L743.621 351.087L704.246 328.354V282.888Z" stroke="#2391AF" stroke-width="2"/>
<path d="M706.068 282.984L778.331 325.409" stroke="#2391AF" stroke-width="2"/>
<path d="M705.135 327.532L779.728 284.175" stroke="#2391AF" stroke-width="2"/>
<path d="M743.623 266.043V350.427" stroke="#2391AF" stroke-width="2"/>
<path d="M742.56 306.9L783.039 283.624L742.56 260.349V306.9Z" fill="#2391AF"/>
<path d="M742.176 305.626L782.573 329.045L782.491 282.351L742.176 305.626Z" fill="#2391AF"/>
<path d="M636.041 123.888L596.666 101.155L557.291 123.888V169.354L596.666 192.087L636.041 169.354V123.888Z" stroke="#2391AF" stroke-width="2"/>
<path d="M630.652 126.366L558.39 168.791" stroke="#2391AF" stroke-width="2"/>
<path d="M632.773 167.342L558.18 123.984" stroke="#2391AF" stroke-width="2"/>
<path d="M596.668 104.663V189.047" stroke="#2391AF" stroke-width="2"/>
<path d="M595.864 147.9L636.344 124.625L595.864 101.349V147.9Z" fill="#2391AF"/>
<path d="M595.864 145.085L636.344 168.361L595.864 191.637V145.085Z" fill="#2391AF"/>
<path d="M595.372 146.627L635.769 170.046L635.686 123.352L595.372 146.627Z" fill="#2391AF"/>
<path d="M596.621 259L556.246 282.311V328.932L596.621 352.242L636.996 328.932V282.311L596.621 259Z" fill="#2391AF"/>
<path d="M927.996 123.888L888.621 101.155L849.246 123.888V169.354L888.621 192.087L927.996 169.354V123.888Z" stroke="#2391AF" stroke-width="2"/>
<path d="M922.607 126.366L850.345 168.791" stroke="#2391AF" stroke-width="2"/>
<path d="M925.92 168.533L851.326 125.175" stroke="#2391AF" stroke-width="2"/>
<path d="M888.623 107.043V191.427" stroke="#2391AF" stroke-width="2"/>
<path d="M887.63 146.9L928.109 123.624L887.63 100.349V146.9Z" fill="#2391AF"/>
<path d="M888.749 147.9L848.27 124.624L888.749 101.349V147.9Z" fill="#2391AF"/>
<path d="M887.327 146.627L927.724 170.046L927.641 123.352L887.327 146.627Z" fill="#2391AF"/>
<path d="M927.996 282.888L888.621 260.155L849.246 282.888V328.354L888.621 351.087L927.996 328.354V282.888Z" stroke="#2391AF" stroke-width="2"/>
<path d="M922.605 285.365L850.343 327.79" stroke="#2391AF" stroke-width="2"/>
<path d="M925.918 327.532L851.324 284.175" stroke="#2391AF" stroke-width="2"/>
<path d="M889.812 264.853V349.237" stroke="#2391AF" stroke-width="2"/>
<path d="M887.82 306.9L928.299 283.624L887.82 260.349V306.9Z" fill="#2391AF"/>
<path d="M887.82 304.312L928.299 327.587L887.82 350.863V304.312Z" fill="#2391AF"/>
<path d="M888.747 306.9L848.268 283.624L888.747 260.349V306.9Z" fill="#2391AF"/>
<path d="M888.516 305.626L928.913 329.045L928.831 282.351L888.516 305.626Z" fill="#2391AF"/>
<path d="M704.246 123.888L743.621 101.155L782.996 123.888V169.354L743.621 192.087L704.246 169.354V123.888Z" stroke="#2391AF" stroke-width="2"/>
<path d="M704.877 123.984L782.264 169.418" stroke="#2391AF" stroke-width="2"/>
<path d="M705.133 168.533L779.726 125.175" stroke="#2391AF" stroke-width="2"/>
<path d="M744.812 107.043V191.428" stroke="#2391AF" stroke-width="2"/>
<path d="M742.818 147.9L783.297 124.624L742.818 101.349V147.9Z" fill="#2391AF"/>
<rect x="1" y="1" width="478" height="478" stroke="#E0E0E0" stroke-width="2"/>
<path d="M411.944 470.06C411.144 470.06 410.412 469.868 409.748 469.484C409.084 469.1 408.56 468.58 408.176 467.924C407.8 467.26 407.612 466.524 407.612 465.716C407.612 464.908 407.8 464.176 408.176 463.52C408.56 462.864 409.08 462.348 409.736 461.972C410.4 461.588 411.136 461.396 411.944 461.396C412.752 461.396 413.484 461.588 414.14 461.972C414.804 462.348 415.324 462.868 415.7 463.532C416.084 464.188 416.276 464.916 416.276 465.716C416.276 466.524 416.084 467.26 415.7 467.924C415.324 468.58 414.804 469.1 414.14 469.484C413.476 469.868 412.744 470.06 411.944 470.06ZM411.944 469.52C412.648 469.52 413.284 469.356 413.852 469.028C414.428 468.692 414.88 468.236 415.208 467.66C415.536 467.076 415.7 466.428 415.7 465.716C415.7 465.012 415.536 464.372 415.208 463.796C414.88 463.22 414.428 462.768 413.852 462.44C413.284 462.104 412.648 461.936 411.944 461.936C411.24 461.936 410.6 462.104 410.024 462.44C409.448 462.768 408.996 463.22 408.668 463.796C408.34 464.372 408.176 465.012 408.176 465.716C408.176 466.428 408.34 467.076 408.668 467.66C408.996 468.236 409.448 468.692 410.024 469.028C410.6 469.356 411.24 469.52 411.944 469.52ZM412.04 468.344C411.288 468.344 410.688 468.108 410.24 467.636C409.8 467.164 409.58 466.524 409.58 465.716C409.58 464.924 409.8 464.292 410.24 463.82C410.688 463.348 411.288 463.112 412.04 463.112C412.384 463.112 412.716 463.172 413.036 463.292C413.356 463.404 413.628 463.564 413.852 463.772L413.564 464.42C413.1 464.044 412.616 463.856 412.112 463.856C411.6 463.856 411.204 464.016 410.924 464.336C410.652 464.656 410.516 465.116 410.516 465.716C410.516 466.324 410.652 466.792 410.924 467.12C411.204 467.44 411.6 467.6 412.112 467.6C412.616 467.6 413.1 467.412 413.564 467.036L413.852 467.684C413.62 467.892 413.344 468.056 413.024 468.176C412.704 468.288 412.376 468.344 412.04 468.344ZM423.128 462.296H420.152V461.456H427.1V462.296H424.124V470H423.128V462.296ZM432.301 466.952H427.873C427.881 467.72 428.057 468.3 428.401 468.692C428.753 469.084 429.261 469.28 429.925 469.28C430.629 469.28 431.277 469.044 431.869 468.572L432.193 469.28C431.929 469.528 431.589 469.724 431.173 469.868C430.765 470.012 430.345 470.084 429.913 470.084C428.969 470.084 428.229 469.808 427.693 469.256C427.157 468.696 426.889 467.932 426.889 466.964C426.889 466.348 427.009 465.804 427.249 465.332C427.489 464.852 427.825 464.48 428.257 464.216C428.689 463.952 429.181 463.82 429.733 463.82C430.533 463.82 431.161 464.084 431.617 464.612C432.073 465.132 432.301 465.852 432.301 466.772V466.952ZM429.745 464.576C429.241 464.576 428.829 464.728 428.509 465.032C428.197 465.336 427.997 465.764 427.909 466.316H431.425C431.377 465.748 431.209 465.316 430.921 465.02C430.641 464.724 430.249 464.576 429.745 464.576ZM435.816 470.084C434.8 470.084 433.996 469.824 433.404 469.304L433.728 468.584C434.056 468.84 434.388 469.024 434.724 469.136C435.06 469.248 435.436 469.304 435.852 469.304C436.308 469.304 436.652 469.228 436.884 469.076C437.124 468.916 437.244 468.688 437.244 468.392C437.244 468.152 437.164 467.96 437.004 467.816C436.844 467.672 436.58 467.56 436.212 467.48L435.192 467.24C434.688 467.128 434.296 466.928 434.016 466.64C433.744 466.352 433.608 466.008 433.608 465.608C433.608 465.08 433.82 464.652 434.244 464.324C434.668 463.988 435.228 463.82 435.924 463.82C436.348 463.82 436.748 463.888 437.124 464.024C437.5 464.16 437.816 464.356 438.072 464.612L437.748 465.32C437.18 464.848 436.572 464.612 435.924 464.612C435.492 464.612 435.156 464.696 434.916 464.864C434.684 465.024 434.568 465.252 434.568 465.548C434.568 465.796 434.64 465.992 434.784 466.136C434.936 466.28 435.176 466.392 435.504 466.472L436.524 466.724C437.084 466.852 437.5 467.052 437.772 467.324C438.044 467.588 438.18 467.936 438.18 468.368C438.18 468.888 437.968 469.304 437.544 469.616C437.12 469.928 436.544 470.084 435.816 470.084ZM440.966 464.732V468.032C440.966 468.48 441.058 468.796 441.242 468.98C441.426 469.156 441.686 469.244 442.022 469.244C442.246 469.244 442.462 469.208 442.67 469.136V469.964C442.422 470.044 442.142 470.084 441.83 470.084C441.254 470.084 440.802 469.924 440.474 469.604C440.154 469.276 439.994 468.796 439.994 468.164V464.732H438.818V463.964H439.994V462.416L440.966 462.068V463.964H442.694V464.732H440.966ZM443.986 461.456H444.97V470H443.986V461.456ZM452.095 469.856C452.447 470.488 452.963 471.092 453.643 471.668L452.959 472.292C452.623 472.036 452.287 471.708 451.951 471.308C451.615 470.916 451.323 470.504 451.075 470.072C450.899 470.088 450.759 470.096 450.655 470.096C449.863 470.096 449.175 469.92 448.591 469.568C448.007 469.216 447.555 468.712 447.235 468.056C446.923 467.392 446.767 466.616 446.767 465.728C446.767 464.832 446.923 464.056 447.235 463.4C447.547 462.744 447.995 462.24 448.579 461.888C449.163 461.536 449.855 461.36 450.655 461.36C451.455 461.36 452.147 461.536 452.731 461.888C453.315 462.24 453.763 462.744 454.075 463.4C454.387 464.056 454.543 464.828 454.543 465.716C454.543 466.764 454.327 467.648 453.895 468.368C453.471 469.08 452.871 469.576 452.095 469.856ZM447.775 465.716C447.775 466.844 448.027 467.716 448.531 468.332C449.035 468.948 449.743 469.256 450.655 469.256C451.559 469.256 452.263 468.948 452.767 468.332C453.271 467.716 453.523 466.844 453.523 465.716C453.523 464.588 453.271 463.72 452.767 463.112C452.271 462.504 451.567 462.2 450.655 462.2C449.743 462.2 449.035 462.508 448.531 463.124C448.027 463.732 447.775 464.596 447.775 465.716ZM456.91 468.764V470H455.674V468.764H456.91ZM463.478 463.976L460.874 470H459.95L457.382 463.976H458.402L460.442 468.944L462.506 463.976H463.478ZM467.561 463.82C469.009 463.82 469.733 464.616 469.733 466.208V470H468.761V466.256C468.761 465.696 468.649 465.288 468.425 465.032C468.201 464.768 467.849 464.636 467.369 464.636C466.809 464.636 466.361 464.808 466.025 465.152C465.689 465.496 465.521 465.96 465.521 466.544V470H464.549V465.656C464.549 465.032 464.517 464.468 464.453 463.964H465.377L465.473 465.044C465.657 464.652 465.933 464.352 466.301 464.144C466.669 463.928 467.089 463.82 467.561 463.82Z" fill="#828282"/>
<path d="M414.656 390.094C414.656 392.344 414.052 394.406 412.844 396.281C412.365 397.052 411.74 397.854 410.969 398.688L409.906 399.781L406.625 403.031C405.833 403.885 405.177 404.688 404.656 405.438C403.385 407.333 402.688 409.406 402.562 411.656H397.844V411.406C397.844 408.823 398.469 406.469 399.719 404.344C400.24 403.469 400.885 402.583 401.656 401.688C402.219 401.021 402.958 400.25 403.875 399.375L406.094 397.219C406.906 396.406 407.552 395.677 408.031 395.031C409.302 393.365 409.938 391.646 409.938 389.875C409.938 387.229 408.927 384.969 406.906 383.094C404.927 381.26 402.604 380.344 399.938 380.344C396.271 380.344 393.396 381.906 391.312 385.031C390.667 385.99 390.24 387.021 390.031 388.125C389.906 388.896 389.844 390.021 389.844 391.5H385.094V390.281C385.094 386.281 386.604 382.865 389.625 380.031C392.604 377.26 396.104 375.875 400.125 375.875C404.229 375.875 407.667 377.219 410.438 379.906C413.25 382.615 414.656 386.01 414.656 390.094ZM397.844 424V415.938H402.562V424H397.844Z" fill="#2391AF"/>
</svg>
