<svg width="960" height="480" viewBox="0 0 960 480" fill="none" xmlns="http://www.w3.org/2000/svg">
<rect opacity="0.5" x="208.363" y="49.1143" width="93.5443" height="27.8406" fill="#2391AF"/>
<rect opacity="0.5" x="177.18" y="135.554" width="62.3629" height="27.8406" fill="#2391AF"/>
<rect opacity="0.5" x="146" y="221.996" width="62.3629" height="27.8406" fill="#2391AF"/>
<rect opacity="0.5" x="146" y="307.206" width="62.3629" height="27.8406" fill="#2391AF"/>
<rect opacity="0.5" x="270.727" y="135.554" width="31.1814" height="27.8406" fill="#2391AF"/>
<rect opacity="0.5" x="301.352" y="221.996" width="31.1814" height="27.8406" fill="#2391AF"/>
<rect opacity="0.5" x="301.352" y="307.206" width="31.1814" height="27.8406" fill="#2391AF"/>
<rect x="146.113" y="48.1143" width="185.748" height="29.8406" stroke="#2391AF" stroke-width="2"/>
<rect x="146.113" y="134.554" width="185.748" height="29.8406" stroke="#2391AF" stroke-width="2"/>
<rect x="146.113" y="220.996" width="185.748" height="29.8406" stroke="#2391AF" stroke-width="2"/>
<rect x="146.113" y="306.206" width="185.748" height="29.8406" stroke="#2391AF" stroke-width="2"/>
<rect x="146.113" y="392.646" width="94.4307" height="29.8406" stroke="#2391AF" stroke-width="2"/>
<path d="M177.18 48V78.6246" stroke="#2391AF" stroke-width="2"/>
<path d="M177.18 134.442V165.067" stroke="#2391AF" stroke-width="2"/>
<path d="M177.18 220.883V251.507" stroke="#2391AF" stroke-width="2"/>
<path d="M177.18 306.092V336.716" stroke="#2391AF" stroke-width="2"/>
<path d="M177.18 392.533V423.158" stroke="#2391AF" stroke-width="2"/>
<path d="M239.541 48V78.6246" stroke="#2391AF" stroke-width="2"/>
<path d="M239.541 134.442V165.067" stroke="#2391AF" stroke-width="2"/>
<path d="M239.541 220.883V251.507" stroke="#2391AF" stroke-width="2"/>
<path d="M239.541 306.092V336.716" stroke="#2391AF" stroke-width="2"/>
<path d="M240.775 382.83L240.775 432.12" stroke="#2391AF" stroke-width="2"/>
<path d="M301.904 48V78.6246" stroke="#2391AF" stroke-width="2"/>
<path d="M301.904 134.442V165.067" stroke="#2391AF" stroke-width="2"/>
<path d="M301.904 220.883V251.507" stroke="#2391AF" stroke-width="2"/>
<path d="M301.904 306.092V336.716" stroke="#2391AF" stroke-width="2"/>
<path d="M208.363 48V78.6246" stroke="#2391AF" stroke-width="2"/>
<path d="M208.363 134.442V165.067" stroke="#2391AF" stroke-width="2"/>
<path d="M208.363 220.883V251.507" stroke="#2391AF" stroke-width="2"/>
<path d="M208.363 306.092V336.716" stroke="#2391AF" stroke-width="2"/>
<path d="M208.363 392.533V423.158" stroke="#2391AF" stroke-width="2"/>
<path d="M270.727 48V78.6246" stroke="#2391AF" stroke-width="2"/>
<path d="M270.727 134.442V165.067" stroke="#2391AF" stroke-width="2"/>
<path d="M270.727 220.883V251.507" stroke="#2391AF" stroke-width="2"/>
<path d="M270.727 306.092V336.716" stroke="#2391AF" stroke-width="2"/>
<rect x="241.889" y="382.83" width="91.8739" height="49.2899" fill="#F2F2F2"/>
<rect opacity="0.5" x="616.926" y="136.232" width="28.3417" height="29.574" fill="#2391AF"/>
<rect x="554" y="135.113" width="92.2034" height="29.8406" stroke="#2391AF" stroke-width="2"/>
<path d="M616.25 135V165.625" stroke="#2391AF" stroke-width="2"/>
<path d="M585.066 135V165.625" stroke="#2391AF" stroke-width="2"/>
<rect opacity="0.5" x="842" y="136.114" width="31.1814" height="27.8406" fill="#2391AF"/>
<rect x="843.15" y="135.113" width="92.2034" height="29.8406" stroke="#2391AF" stroke-width="2"/>
<path d="M905.4 135V165.625" stroke="#2391AF" stroke-width="2"/>
<path d="M874.217 135V165.625" stroke="#2391AF" stroke-width="2"/>
<rect opacity="0.5" x="728.574" y="136.232" width="62.8447" height="28.3417" fill="#2391AF"/>
<rect x="698" y="135.113" width="92.2034" height="29.8406" stroke="#2391AF" stroke-width="2"/>
<path d="M760.248 135V165.625" stroke="#2391AF" stroke-width="2"/>
<path d="M729.068 135V165.625" stroke="#2391AF" stroke-width="2"/>
<rect opacity="0.5" x="615.611" y="293.113" width="31.1814" height="27.8406" fill="#2391AF"/>
<rect opacity="0.5" x="554" y="293.114" width="31.1814" height="27.8406" fill="#2391AF"/>
<rect x="553.918" y="292.113" width="92.2034" height="29.8406" stroke="#2391AF" stroke-width="2"/>
<path d="M616.168 292V322.625" stroke="#2391AF" stroke-width="2"/>
<path d="M584.986 292V322.625" stroke="#2391AF" stroke-width="2"/>
<rect opacity="0.5" x="699" y="293.232" width="62.8447" height="28.3417" fill="#2391AF"/>
<rect x="698.92" y="292.113" width="92.2034" height="29.8406" stroke="#2391AF" stroke-width="2"/>
<path d="M761.168 292V322.625" stroke="#2391AF" stroke-width="2"/>
<path d="M729.986 292V322.625" stroke="#2391AF" stroke-width="2"/>
<rect opacity="0.5" x="872.887" y="293.232" width="32.0385" height="28.3417" fill="#2391AF"/>
<rect x="842" y="292.113" width="92.2034" height="29.8406" stroke="#2391AF" stroke-width="2"/>
<path d="M904.25 292V322.625" stroke="#2391AF" stroke-width="2"/>
<path d="M873.066 292V322.625" stroke="#2391AF" stroke-width="2"/>
<rect x="1" y="1" width="478" height="478" stroke="#E0E0E0" stroke-width="2"/>
<path d="M411.944 470.06C411.144 470.06 410.412 469.868 409.748 469.484C409.084 469.1 408.56 468.58 408.176 467.924C407.8 467.26 407.612 466.524 407.612 465.716C407.612 464.908 407.8 464.176 408.176 463.52C408.56 462.864 409.08 462.348 409.736 461.972C410.4 461.588 411.136 461.396 411.944 461.396C412.752 461.396 413.484 461.588 414.14 461.972C414.804 462.348 415.324 462.868 415.7 463.532C416.084 464.188 416.276 464.916 416.276 465.716C416.276 466.524 416.084 467.26 415.7 467.924C415.324 468.58 414.804 469.1 414.14 469.484C413.476 469.868 412.744 470.06 411.944 470.06ZM411.944 469.52C412.648 469.52 413.284 469.356 413.852 469.028C414.428 468.692 414.88 468.236 415.208 467.66C415.536 467.076 415.7 466.428 415.7 465.716C415.7 465.012 415.536 464.372 415.208 463.796C414.88 463.22 414.428 462.768 413.852 462.44C413.284 462.104 412.648 461.936 411.944 461.936C411.24 461.936 410.6 462.104 410.024 462.44C409.448 462.768 408.996 463.22 408.668 463.796C408.34 464.372 408.176 465.012 408.176 465.716C408.176 466.428 408.34 467.076 408.668 467.66C408.996 468.236 409.448 468.692 410.024 469.028C410.6 469.356 411.24 469.52 411.944 469.52ZM412.04 468.344C411.288 468.344 410.688 468.108 410.24 467.636C409.8 467.164 409.58 466.524 409.58 465.716C409.58 464.924 409.8 464.292 410.24 463.82C410.688 463.348 411.288 463.112 412.04 463.112C412.384 463.112 412.716 463.172 413.036 463.292C413.356 463.404 413.628 463.564 413.852 463.772L413.564 464.42C413.1 464.044 412.616 463.856 412.112 463.856C411.6 463.856 411.204 464.016 410.924 464.336C410.652 464.656 410.516 465.116 410.516 465.716C410.516 466.324 410.652 466.792 410.924 467.12C411.204 467.44 411.6 467.6 412.112 467.6C412.616 467.6 413.1 467.412 413.564 467.036L413.852 467.684C413.62 467.892 413.344 468.056 413.024 468.176C412.704 468.288 412.376 468.344 412.04 468.344ZM423.128 462.296H420.152V461.456H427.1V462.296H424.124V470H423.128V462.296ZM432.301 466.952H427.873C427.881 467.72 428.057 468.3 428.401 468.692C428.753 469.084 429.261 469.28 429.925 469.28C430.629 469.28 431.277 469.044 431.869 468.572L432.193 469.28C431.929 469.528 431.589 469.724 431.173 469.868C430.765 470.012 430.345 470.084 429.913 470.084C428.969 470.084 428.229 469.808 427.693 469.256C427.157 468.696 426.889 467.932 426.889 466.964C426.889 466.348 427.009 465.804 427.249 465.332C427.489 464.852 427.825 464.48 428.257 464.216C428.689 463.952 429.181 463.82 429.733 463.82C430.533 463.82 431.161 464.084 431.617 464.612C432.073 465.132 432.301 465.852 432.301 466.772V466.952ZM429.745 464.576C429.241 464.576 428.829 464.728 428.509 465.032C428.197 465.336 427.997 465.764 427.909 466.316H431.425C431.377 465.748 431.209 465.316 430.921 465.02C430.641 464.724 430.249 464.576 429.745 464.576ZM435.816 470.084C434.8 470.084 433.996 469.824 433.404 469.304L433.728 468.584C434.056 468.84 434.388 469.024 434.724 469.136C435.06 469.248 435.436 469.304 435.852 469.304C436.308 469.304 436.652 469.228 436.884 469.076C437.124 468.916 437.244 468.688 437.244 468.392C437.244 468.152 437.164 467.96 437.004 467.816C436.844 467.672 436.58 467.56 436.212 467.48L435.192 467.24C434.688 467.128 434.296 466.928 434.016 466.64C433.744 466.352 433.608 466.008 433.608 465.608C433.608 465.08 433.82 464.652 434.244 464.324C434.668 463.988 435.228 463.82 435.924 463.82C436.348 463.82 436.748 463.888 437.124 464.024C437.5 464.16 437.816 464.356 438.072 464.612L437.748 465.32C437.18 464.848 436.572 464.612 435.924 464.612C435.492 464.612 435.156 464.696 434.916 464.864C434.684 465.024 434.568 465.252 434.568 465.548C434.568 465.796 434.64 465.992 434.784 466.136C434.936 466.28 435.176 466.392 435.504 466.472L436.524 466.724C437.084 466.852 437.5 467.052 437.772 467.324C438.044 467.588 438.18 467.936 438.18 468.368C438.18 468.888 437.968 469.304 437.544 469.616C437.12 469.928 436.544 470.084 435.816 470.084ZM440.966 464.732V468.032C440.966 468.48 441.058 468.796 441.242 468.98C441.426 469.156 441.686 469.244 442.022 469.244C442.246 469.244 442.462 469.208 442.67 469.136V469.964C442.422 470.044 442.142 470.084 441.83 470.084C441.254 470.084 440.802 469.924 440.474 469.604C440.154 469.276 439.994 468.796 439.994 468.164V464.732H438.818V463.964H439.994V462.416L440.966 462.068V463.964H442.694V464.732H440.966ZM443.986 461.456H444.97V470H443.986V461.456ZM452.095 469.856C452.447 470.488 452.963 471.092 453.643 471.668L452.959 472.292C452.623 472.036 452.287 471.708 451.951 471.308C451.615 470.916 451.323 470.504 451.075 470.072C450.899 470.088 450.759 470.096 450.655 470.096C449.863 470.096 449.175 469.92 448.591 469.568C448.007 469.216 447.555 468.712 447.235 468.056C446.923 467.392 446.767 466.616 446.767 465.728C446.767 464.832 446.923 464.056 447.235 463.4C447.547 462.744 447.995 462.24 448.579 461.888C449.163 461.536 449.855 461.36 450.655 461.36C451.455 461.36 452.147 461.536 452.731 461.888C453.315 462.24 453.763 462.744 454.075 463.4C454.387 464.056 454.543 464.828 454.543 465.716C454.543 466.764 454.327 467.648 453.895 468.368C453.471 469.08 452.871 469.576 452.095 469.856ZM447.775 465.716C447.775 466.844 448.027 467.716 448.531 468.332C449.035 468.948 449.743 469.256 450.655 469.256C451.559 469.256 452.263 468.948 452.767 468.332C453.271 467.716 453.523 466.844 453.523 465.716C453.523 464.588 453.271 463.72 452.767 463.112C452.271 462.504 451.567 462.2 450.655 462.2C449.743 462.2 449.035 462.508 448.531 463.124C448.027 463.732 447.775 464.596 447.775 465.716ZM456.91 468.764V470H455.674V468.764H456.91ZM463.478 463.976L460.874 470H459.95L457.382 463.976H458.402L460.442 468.944L462.506 463.976H463.478ZM467.561 463.82C469.009 463.82 469.733 464.616 469.733 466.208V470H468.761V466.256C468.761 465.696 468.649 465.288 468.425 465.032C468.201 464.768 467.849 464.636 467.369 464.636C466.809 464.636 466.361 464.808 466.025 465.152C465.689 465.496 465.521 465.96 465.521 466.544V470H464.549V465.656C464.549 465.032 464.517 464.468 464.453 463.964H465.377L465.473 465.044C465.657 464.652 465.933 464.352 466.301 464.144C466.669 463.928 467.089 463.82 467.561 463.82Z" fill="#828282"/>
<path d="M299.656 397.094C299.656 399.344 299.052 401.406 297.844 403.281C297.365 404.052 296.74 404.854 295.969 405.688L294.906 406.781L291.625 410.031C290.833 410.885 290.177 411.688 289.656 412.438C288.385 414.333 287.688 416.406 287.562 418.656H282.844V418.406C282.844 415.823 283.469 413.469 284.719 411.344C285.24 410.469 285.885 409.583 286.656 408.688C287.219 408.021 287.958 407.25 288.875 406.375L291.094 404.219C291.906 403.406 292.552 402.677 293.031 402.031C294.302 400.365 294.938 398.646 294.938 396.875C294.938 394.229 293.927 391.969 291.906 390.094C289.927 388.26 287.604 387.344 284.938 387.344C281.271 387.344 278.396 388.906 276.312 392.031C275.667 392.99 275.24 394.021 275.031 395.125C274.906 395.896 274.844 397.021 274.844 398.5H270.094V397.281C270.094 393.281 271.604 389.865 274.625 387.031C277.604 384.26 281.104 382.875 285.125 382.875C289.229 382.875 292.667 384.219 295.438 386.906C298.25 389.615 299.656 393.01 299.656 397.094ZM282.844 431V422.938H287.562V431H282.844Z" fill="#2391AF"/>
</svg>
