<svg width="960" height="480" viewBox="0 0 960 480" fill="none" xmlns="http://www.w3.org/2000/svg">
<rect x="31" y="196" width="87.0868" height="87.0868" stroke="#2391AF" stroke-width="2"/>
<rect x="66.6348" y="206.023" width="16.931" height="16.931" stroke="#2391AF" stroke-width="2"/>
<rect x="66.6348" y="255.021" width="16.931" height="16.931" stroke="#2391AF" stroke-width="2"/>
<rect x="42.1348" y="231.635" width="16.931" height="16.931" stroke="#2391AF" stroke-width="2"/>
<rect x="92.248" y="206.023" width="16.931" height="16.931" stroke="#2391AF" stroke-width="2"/>
<path d="M50.6019 208.363L57.8348 220.891H43.3689L50.6019 208.363Z" stroke="#2391AF" stroke-width="2"/>
<path d="M50.6019 257.36L57.8348 269.888H43.3689L50.6019 257.36Z" stroke="#2391AF" stroke-width="2"/>
<path d="M100.711 233.976L107.944 246.503H93.4783L100.711 233.976Z" stroke="#2391AF" stroke-width="2"/>
<path d="M66.75 230.636L83.4538 247.768" stroke="#2391AF" stroke-width="2"/>
<path d="M83.4551 230.636L66.7513 247.768" stroke="#2391AF" stroke-width="2"/>
<path d="M92.3633 256.248L109.067 273.38" stroke="#2391AF" stroke-width="2"/>
<path d="M109.068 256.248L92.3646 273.38" stroke="#2391AF" stroke-width="2"/>
<rect x="141.244" y="196" width="87.0868" height="87.0868" stroke="#2391AF" stroke-width="2"/>
<rect x="151.268" y="206.023" width="16.931" height="16.931" stroke="#2391AF" stroke-width="2"/>
<rect x="201.379" y="231.635" width="16.931" height="16.931" stroke="#2391AF" stroke-width="2"/>
<rect x="151.268" y="255.021" width="16.931" height="16.931" stroke="#2391AF" stroke-width="2"/>
<path d="M185.346 233.976L192.579 246.503H178.113L185.346 233.976Z" stroke="#2391AF" stroke-width="2"/>
<path d="M209.844 258.475L217.077 271.002H202.611L209.844 258.475Z" stroke="#2391AF" stroke-width="2"/>
<path d="M176.992 206.136L193.696 223.268" stroke="#2391AF" stroke-width="2"/>
<path d="M193.697 206.136L176.993 223.268" stroke="#2391AF" stroke-width="2"/>
<path d="M151.381 230.636L168.085 247.768" stroke="#2391AF" stroke-width="2"/>
<path d="M168.086 230.636L151.382 247.768" stroke="#2391AF" stroke-width="2"/>
<path d="M201.492 206.136L218.196 223.268" stroke="#2391AF" stroke-width="2"/>
<path d="M218.197 206.136L201.493 223.268" stroke="#2391AF" stroke-width="2"/>
<path d="M176.992 256.248L193.696 273.38" stroke="#2391AF" stroke-width="2"/>
<path d="M193.697 256.248L176.993 273.38" stroke="#2391AF" stroke-width="2"/>
<rect x="251.488" y="196" width="87.0868" height="87.0868" stroke="#2391AF" stroke-width="2"/>
<rect x="287.125" y="231.635" width="16.931" height="16.931" stroke="#2391AF" stroke-width="2"/>
<rect x="311.623" y="256.134" width="16.931" height="16.931" stroke="#2391AF" stroke-width="2"/>
<path d="M295.59 207.25L302.823 219.778H288.357L295.59 207.25Z" stroke="#2391AF" stroke-width="2"/>
<path d="M269.979 233.976L277.212 246.503H262.746L269.979 233.976Z" stroke="#2391AF" stroke-width="2"/>
<path d="M320.088 207.25L327.321 219.778H312.855L320.088 207.25Z" stroke="#2391AF" stroke-width="2"/>
<path d="M295.59 258.475L302.823 271.002H288.357L295.59 258.475Z" stroke="#2391AF" stroke-width="2"/>
<path d="M261.625 206.136L278.329 223.268" stroke="#2391AF" stroke-width="2"/>
<path d="M278.33 206.136L261.626 223.268" stroke="#2391AF" stroke-width="2"/>
<path d="M311.738 230.636L328.442 247.768" stroke="#2391AF" stroke-width="2"/>
<path d="M328.443 230.636L311.74 247.768" stroke="#2391AF" stroke-width="2"/>
<path d="M261.625 256.248L278.329 273.38" stroke="#2391AF" stroke-width="2"/>
<path d="M278.33 256.248L261.626 273.38" stroke="#2391AF" stroke-width="2"/>
<rect x="700" y="103" width="87.0868" height="87.0868" stroke="#2391AF" stroke-width="2"/>
<rect x="710.023" y="164.247" width="16.931" height="16.931" stroke="#2391AF" stroke-width="2"/>
<rect x="710.023" y="138.634" width="16.931" height="16.931" stroke="#2391AF" stroke-width="2"/>
<rect x="761.248" y="113.022" width="16.931" height="16.931" stroke="#2391AF" stroke-width="2"/>
<path d="M769.711 140.976L776.944 153.503H762.478L769.711 140.976Z" stroke="#2391AF" stroke-width="2"/>
<path d="M718.487 115.363L725.72 127.891H711.254L718.487 115.363Z" stroke="#2391AF" stroke-width="2"/>
<path d="M744.1 115.363L751.333 127.891H736.867L744.1 115.363Z" stroke="#2391AF" stroke-width="2"/>
<path d="M744.1 166.588L751.333 179.116H736.867L744.1 166.588Z" stroke="#2391AF" stroke-width="2"/>
<path d="M735.748 137.635L752.452 154.767" stroke="#2391AF" stroke-width="2"/>
<path d="M752.453 137.635L735.749 154.767" stroke="#2391AF" stroke-width="2"/>
<path d="M761.361 163.248L778.065 180.38" stroke="#2391AF" stroke-width="2"/>
<path d="M778.066 163.248L761.363 180.38" stroke="#2391AF" stroke-width="2"/>
<rect x="555" y="262" width="87.0868" height="87.0868" stroke="#2391AF" stroke-width="2"/>
<rect x="565.023" y="297.634" width="16.931" height="16.931" stroke="#2391AF" stroke-width="2"/>
<rect x="615.133" y="270.908" width="16.931" height="16.931" stroke="#2391AF" stroke-width="2"/>
<rect x="590.635" y="270.908" width="16.931" height="16.931" stroke="#2391AF" stroke-width="2"/>
<rect x="590.635" y="323.247" width="16.931" height="16.931" stroke="#2391AF" stroke-width="2"/>
<path d="M623.6 299.976L630.833 312.503H616.367L623.6 299.976Z" stroke="#2391AF" stroke-width="2"/>
<path d="M573.487 274.363L580.72 286.891H566.254L573.487 274.363Z" stroke="#2391AF" stroke-width="2"/>
<path d="M573.487 325.588L580.72 338.116H566.254L573.487 325.588Z" stroke="#2391AF" stroke-width="2"/>
<path d="M590.748 296.634L607.452 313.766" stroke="#2391AF" stroke-width="2"/>
<path d="M607.453 296.634L590.749 313.766" stroke="#2391AF" stroke-width="2"/>
<path d="M615.248 322.248L631.952 339.38" stroke="#2391AF" stroke-width="2"/>
<path d="M631.953 322.248L615.249 339.38" stroke="#2391AF" stroke-width="2"/>
<rect x="700" y="262" width="87.0868" height="87.0868" stroke="#2391AF" stroke-width="2"/>
<rect x="735.635" y="297.634" width="16.931" height="16.931" stroke="#2391AF" stroke-width="2"/>
<rect x="761.248" y="323.247" width="16.931" height="16.931" stroke="#2391AF" stroke-width="2"/>
<path d="M718.487 301.09L725.72 313.618H711.254L718.487 301.09Z" stroke="#2391AF" stroke-width="2"/>
<path d="M744.1 275.477L751.333 288.004H736.867L744.1 275.477Z" stroke="#2391AF" stroke-width="2"/>
<path d="M769.711 275.477L776.944 288.004H762.478L769.711 275.477Z" stroke="#2391AF" stroke-width="2"/>
<path d="M710.135 273.25L726.839 290.382" stroke="#2391AF" stroke-width="2"/>
<path d="M726.84 273.25L710.136 290.382" stroke="#2391AF" stroke-width="2"/>
<path d="M761.361 296.634L778.065 313.766" stroke="#2391AF" stroke-width="2"/>
<path d="M778.066 296.634L761.363 313.766" stroke="#2391AF" stroke-width="2"/>
<path d="M710.135 323.36L726.839 340.492" stroke="#2391AF" stroke-width="2"/>
<path d="M726.84 323.36L710.136 340.492" stroke="#2391AF" stroke-width="2"/>
<path d="M735.748 323.36L752.452 340.492" stroke="#2391AF" stroke-width="2"/>
<path d="M752.453 323.36L735.749 340.492" stroke="#2391AF" stroke-width="2"/>
<rect x="847" y="262" width="87.0868" height="87.0868" stroke="#2391AF" stroke-width="2"/>
<rect x="882.635" y="297.634" width="16.931" height="16.931" stroke="#2391AF" stroke-width="2"/>
<rect x="908.248" y="323.247" width="16.931" height="16.931" stroke="#2391AF" stroke-width="2"/>
<path d="M865.487 301.09L872.72 313.618H858.254L865.487 301.09Z" stroke="#2391AF" stroke-width="2"/>
<path d="M891.1 275.477L898.333 288.004H883.867L891.1 275.477Z" stroke="#2391AF" stroke-width="2"/>
<path d="M865.487 275.477L872.72 288.004H858.254L865.487 275.477Z" stroke="#2391AF" stroke-width="2"/>
<path d="M916.711 275.477L923.944 288.004H909.478L916.711 275.477Z" stroke="#2391AF" stroke-width="2"/>
<path d="M908.361 296.634L925.065 313.766" stroke="#2391AF" stroke-width="2"/>
<path d="M925.066 296.634L908.363 313.766" stroke="#2391AF" stroke-width="2"/>
<path d="M857.135 323.36L873.839 340.492" stroke="#2391AF" stroke-width="2"/>
<path d="M873.84 323.36L857.136 340.492" stroke="#2391AF" stroke-width="2"/>
<path d="M882.748 323.36L899.452 340.492" stroke="#2391AF" stroke-width="2"/>
<path d="M899.453 323.36L882.749 340.492" stroke="#2391AF" stroke-width="2"/>
<rect x="555" y="103" width="87.0868" height="87.0868" stroke="#2391AF" stroke-width="2"/>
<rect x="565.023" y="113.022" width="16.931" height="16.931" stroke="#2391AF" stroke-width="2"/>
<rect x="565.023" y="163.134" width="16.931" height="16.931" stroke="#2391AF" stroke-width="2"/>
<rect x="589.521" y="163.134" width="16.931" height="16.931" stroke="#2391AF" stroke-width="2"/>
<rect x="565.023" y="138.634" width="16.931" height="16.931" stroke="#2391AF" stroke-width="2"/>
<path d="M623.6 140.976L630.833 153.503H616.367L623.6 140.976Z" stroke="#2391AF" stroke-width="2"/>
<path d="M623.6 165.475L630.833 178.002H616.367L623.6 165.475Z" stroke="#2391AF" stroke-width="2"/>
<path d="M589.633 137.634L606.337 154.766" stroke="#2391AF" stroke-width="2"/>
<path d="M606.338 137.634L589.634 154.766" stroke="#2391AF" stroke-width="2"/>
<path d="M589.633 113.136L606.337 130.268" stroke="#2391AF" stroke-width="2"/>
<path d="M606.338 113.136L589.634 130.268" stroke="#2391AF" stroke-width="2"/>
<path d="M614.133 113.136L630.837 130.268" stroke="#2391AF" stroke-width="2"/>
<path d="M630.838 113.136L614.134 130.268" stroke="#2391AF" stroke-width="2"/>
<rect x="847" y="103" width="87.0868" height="87.0868" stroke="#2391AF" stroke-width="2"/>
<rect x="857.023" y="113.022" width="16.931" height="16.931" stroke="#2391AF" stroke-width="2"/>
<rect x="908.248" y="138.634" width="16.931" height="16.931" stroke="#2391AF" stroke-width="2"/>
<rect x="857.023" y="163.134" width="16.931" height="16.931" stroke="#2391AF" stroke-width="2"/>
<path d="M891.1 142.09L898.333 154.618H883.867L891.1 142.09Z" stroke="#2391AF" stroke-width="2"/>
<path d="M916.711 165.475L923.944 178.002H909.478L916.711 165.475Z" stroke="#2391AF" stroke-width="2"/>
<path d="M857.135 137.634L873.839 154.766" stroke="#2391AF" stroke-width="2"/>
<path d="M873.84 137.634L857.136 154.766" stroke="#2391AF" stroke-width="2"/>
<path d="M882.748 113.136L899.452 130.268" stroke="#2391AF" stroke-width="2"/>
<path d="M899.453 113.136L882.749 130.268" stroke="#2391AF" stroke-width="2"/>
<path d="M882.748 163.248L899.452 180.38" stroke="#2391AF" stroke-width="2"/>
<path d="M899.453 163.248L882.749 180.38" stroke="#2391AF" stroke-width="2"/>
<path d="M908.361 113.136L925.065 130.268" stroke="#2391AF" stroke-width="2"/>
<path d="M925.066 113.136L908.363 130.268" stroke="#2391AF" stroke-width="2"/>
<rect x="1" y="1" width="478" height="478" stroke="#E0E0E0" stroke-width="2"/>
<path d="M411.944 470.06C411.144 470.06 410.412 469.868 409.748 469.484C409.084 469.1 408.56 468.58 408.176 467.924C407.8 467.26 407.612 466.524 407.612 465.716C407.612 464.908 407.8 464.176 408.176 463.52C408.56 462.864 409.08 462.348 409.736 461.972C410.4 461.588 411.136 461.396 411.944 461.396C412.752 461.396 413.484 461.588 414.14 461.972C414.804 462.348 415.324 462.868 415.7 463.532C416.084 464.188 416.276 464.916 416.276 465.716C416.276 466.524 416.084 467.26 415.7 467.924C415.324 468.58 414.804 469.1 414.14 469.484C413.476 469.868 412.744 470.06 411.944 470.06ZM411.944 469.52C412.648 469.52 413.284 469.356 413.852 469.028C414.428 468.692 414.88 468.236 415.208 467.66C415.536 467.076 415.7 466.428 415.7 465.716C415.7 465.012 415.536 464.372 415.208 463.796C414.88 463.22 414.428 462.768 413.852 462.44C413.284 462.104 412.648 461.936 411.944 461.936C411.24 461.936 410.6 462.104 410.024 462.44C409.448 462.768 408.996 463.22 408.668 463.796C408.34 464.372 408.176 465.012 408.176 465.716C408.176 466.428 408.34 467.076 408.668 467.66C408.996 468.236 409.448 468.692 410.024 469.028C410.6 469.356 411.24 469.52 411.944 469.52ZM412.04 468.344C411.288 468.344 410.688 468.108 410.24 467.636C409.8 467.164 409.58 466.524 409.58 465.716C409.58 464.924 409.8 464.292 410.24 463.82C410.688 463.348 411.288 463.112 412.04 463.112C412.384 463.112 412.716 463.172 413.036 463.292C413.356 463.404 413.628 463.564 413.852 463.772L413.564 464.42C413.1 464.044 412.616 463.856 412.112 463.856C411.6 463.856 411.204 464.016 410.924 464.336C410.652 464.656 410.516 465.116 410.516 465.716C410.516 466.324 410.652 466.792 410.924 467.12C411.204 467.44 411.6 467.6 412.112 467.6C412.616 467.6 413.1 467.412 413.564 467.036L413.852 467.684C413.62 467.892 413.344 468.056 413.024 468.176C412.704 468.288 412.376 468.344 412.04 468.344ZM423.128 462.296H420.152V461.456H427.1V462.296H424.124V470H423.128V462.296ZM432.301 466.952H427.873C427.881 467.72 428.057 468.3 428.401 468.692C428.753 469.084 429.261 469.28 429.925 469.28C430.629 469.28 431.277 469.044 431.869 468.572L432.193 469.28C431.929 469.528 431.589 469.724 431.173 469.868C430.765 470.012 430.345 470.084 429.913 470.084C428.969 470.084 428.229 469.808 427.693 469.256C427.157 468.696 426.889 467.932 426.889 466.964C426.889 466.348 427.009 465.804 427.249 465.332C427.489 464.852 427.825 464.48 428.257 464.216C428.689 463.952 429.181 463.82 429.733 463.82C430.533 463.82 431.161 464.084 431.617 464.612C432.073 465.132 432.301 465.852 432.301 466.772V466.952ZM429.745 464.576C429.241 464.576 428.829 464.728 428.509 465.032C428.197 465.336 427.997 465.764 427.909 466.316H431.425C431.377 465.748 431.209 465.316 430.921 465.02C430.641 464.724 430.249 464.576 429.745 464.576ZM435.816 470.084C434.8 470.084 433.996 469.824 433.404 469.304L433.728 468.584C434.056 468.84 434.388 469.024 434.724 469.136C435.06 469.248 435.436 469.304 435.852 469.304C436.308 469.304 436.652 469.228 436.884 469.076C437.124 468.916 437.244 468.688 437.244 468.392C437.244 468.152 437.164 467.96 437.004 467.816C436.844 467.672 436.58 467.56 436.212 467.48L435.192 467.24C434.688 467.128 434.296 466.928 434.016 466.64C433.744 466.352 433.608 466.008 433.608 465.608C433.608 465.08 433.82 464.652 434.244 464.324C434.668 463.988 435.228 463.82 435.924 463.82C436.348 463.82 436.748 463.888 437.124 464.024C437.5 464.16 437.816 464.356 438.072 464.612L437.748 465.32C437.18 464.848 436.572 464.612 435.924 464.612C435.492 464.612 435.156 464.696 434.916 464.864C434.684 465.024 434.568 465.252 434.568 465.548C434.568 465.796 434.64 465.992 434.784 466.136C434.936 466.28 435.176 466.392 435.504 466.472L436.524 466.724C437.084 466.852 437.5 467.052 437.772 467.324C438.044 467.588 438.18 467.936 438.18 468.368C438.18 468.888 437.968 469.304 437.544 469.616C437.12 469.928 436.544 470.084 435.816 470.084ZM440.966 464.732V468.032C440.966 468.48 441.058 468.796 441.242 468.98C441.426 469.156 441.686 469.244 442.022 469.244C442.246 469.244 442.462 469.208 442.67 469.136V469.964C442.422 470.044 442.142 470.084 441.83 470.084C441.254 470.084 440.802 469.924 440.474 469.604C440.154 469.276 439.994 468.796 439.994 468.164V464.732H438.818V463.964H439.994V462.416L440.966 462.068V463.964H442.694V464.732H440.966ZM443.986 461.456H444.97V470H443.986V461.456ZM452.095 469.856C452.447 470.488 452.963 471.092 453.643 471.668L452.959 472.292C452.623 472.036 452.287 471.708 451.951 471.308C451.615 470.916 451.323 470.504 451.075 470.072C450.899 470.088 450.759 470.096 450.655 470.096C449.863 470.096 449.175 469.92 448.591 469.568C448.007 469.216 447.555 468.712 447.235 468.056C446.923 467.392 446.767 466.616 446.767 465.728C446.767 464.832 446.923 464.056 447.235 463.4C447.547 462.744 447.995 462.24 448.579 461.888C449.163 461.536 449.855 461.36 450.655 461.36C451.455 461.36 452.147 461.536 452.731 461.888C453.315 462.24 453.763 462.744 454.075 463.4C454.387 464.056 454.543 464.828 454.543 465.716C454.543 466.764 454.327 467.648 453.895 468.368C453.471 469.08 452.871 469.576 452.095 469.856ZM447.775 465.716C447.775 466.844 448.027 467.716 448.531 468.332C449.035 468.948 449.743 469.256 450.655 469.256C451.559 469.256 452.263 468.948 452.767 468.332C453.271 467.716 453.523 466.844 453.523 465.716C453.523 464.588 453.271 463.72 452.767 463.112C452.271 462.504 451.567 462.2 450.655 462.2C449.743 462.2 449.035 462.508 448.531 463.124C448.027 463.732 447.775 464.596 447.775 465.716ZM456.91 468.764V470H455.674V468.764H456.91ZM463.478 463.976L460.874 470H459.95L457.382 463.976H458.402L460.442 468.944L462.506 463.976H463.478ZM467.561 463.82C469.009 463.82 469.733 464.616 469.733 466.208V470H468.761V466.256C468.761 465.696 468.649 465.288 468.425 465.032C468.201 464.768 467.849 464.636 467.369 464.636C466.809 464.636 466.361 464.808 466.025 465.152C465.689 465.496 465.521 465.96 465.521 466.544V470H464.549V465.656C464.549 465.032 464.517 464.468 464.453 463.964H465.377L465.473 465.044C465.657 464.652 465.933 464.352 466.301 464.144C466.669 463.928 467.089 463.82 467.561 463.82Z" fill="#828282"/>
<path d="M428.656 231.094C428.656 233.344 428.052 235.406 426.844 237.281C426.365 238.052 425.74 238.854 424.969 239.688L423.906 240.781L420.625 244.031C419.833 244.885 419.177 245.688 418.656 246.438C417.385 248.333 416.688 250.406 416.562 252.656H411.844V252.406C411.844 249.823 412.469 247.469 413.719 245.344C414.24 244.469 414.885 243.583 415.656 242.688C416.219 242.021 416.958 241.25 417.875 240.375L420.094 238.219C420.906 237.406 421.552 236.677 422.031 236.031C423.302 234.365 423.938 232.646 423.938 230.875C423.938 228.229 422.927 225.969 420.906 224.094C418.927 222.26 416.604 221.344 413.938 221.344C410.271 221.344 407.396 222.906 405.312 226.031C404.667 226.99 404.24 228.021 404.031 229.125C403.906 229.896 403.844 231.021 403.844 232.5H399.094V231.281C399.094 227.281 400.604 223.865 403.625 221.031C406.604 218.26 410.104 216.875 414.125 216.875C418.229 216.875 421.667 218.219 424.438 220.906C427.25 223.615 428.656 227.01 428.656 231.094ZM411.844 265V256.938H416.562V265H411.844Z" fill="#2391AF"/>
</svg>
