<svg width="960" height="480" viewBox="0 0 960 480" fill="none" xmlns="http://www.w3.org/2000/svg">
<circle cx="577.304" cy="125.304" r="17.3037" stroke="#2391AF" stroke-width="2"/>
<circle cx="577.304" cy="171.063" r="17.3037" stroke="#2391AF" stroke-width="2"/>
<circle cx="623.064" cy="125.304" r="17.3037" stroke="#2391AF" stroke-width="2"/>
<rect x="703" y="106" width="34.6075" height="34.6075" stroke="#2391AF" stroke-width="2"/>
<rect x="703" y="154.505" width="34.6075" height="34.6075" stroke="#2391AF" stroke-width="2"/>
<rect x="748.76" y="106" width="34.6075" height="34.6075" stroke="#2391AF" stroke-width="2"/>
<rect x="871" y="290" width="34.4072" height="34.4072" stroke="#2391AF" stroke-width="2"/>
<rect x="560" y="265" width="34.6075" height="34.6075" stroke="#2391AF" stroke-width="2"/>
<rect x="560" y="313.505" width="34.6075" height="34.6075" stroke="#2391AF" stroke-width="2"/>
<rect x="605.76" y="265" width="34.6075" height="34.6075" stroke="#2391AF" stroke-width="2"/>
<rect x="605.76" y="313.505" width="34.6075" height="34.6075" stroke="#2391AF" stroke-width="2"/>
<path d="M701.797 297.32L719.88 266L737.962 297.32H701.797Z" stroke="#2391AF" stroke-width="2"/>
<path d="M701.797 340.333L719.88 309.014L737.962 340.333H701.797Z" stroke="#2391AF" stroke-width="2"/>
<path d="M749.385 297.32L767.468 266L785.55 297.32H749.385Z" stroke="#2391AF" stroke-width="2"/>
<path d="M749.385 340.333L767.468 309.014L785.55 340.333H749.385Z" stroke="#2391AF" stroke-width="2"/>
<rect x="845" y="102" width="89.018" height="89.018" stroke="#2391AF" stroke-width="2"/>
<rect x="1" y="1" width="478" height="478" stroke="#E0E0E0" stroke-width="2"/>
<path d="M411.944 470.06C411.144 470.06 410.412 469.868 409.748 469.484C409.084 469.1 408.56 468.58 408.176 467.924C407.8 467.26 407.612 466.524 407.612 465.716C407.612 464.908 407.8 464.176 408.176 463.52C408.56 462.864 409.08 462.348 409.736 461.972C410.4 461.588 411.136 461.396 411.944 461.396C412.752 461.396 413.484 461.588 414.14 461.972C414.804 462.348 415.324 462.868 415.7 463.532C416.084 464.188 416.276 464.916 416.276 465.716C416.276 466.524 416.084 467.26 415.7 467.924C415.324 468.58 414.804 469.1 414.14 469.484C413.476 469.868 412.744 470.06 411.944 470.06ZM411.944 469.52C412.648 469.52 413.284 469.356 413.852 469.028C414.428 468.692 414.88 468.236 415.208 467.66C415.536 467.076 415.7 466.428 415.7 465.716C415.7 465.012 415.536 464.372 415.208 463.796C414.88 463.22 414.428 462.768 413.852 462.44C413.284 462.104 412.648 461.936 411.944 461.936C411.24 461.936 410.6 462.104 410.024 462.44C409.448 462.768 408.996 463.22 408.668 463.796C408.34 464.372 408.176 465.012 408.176 465.716C408.176 466.428 408.34 467.076 408.668 467.66C408.996 468.236 409.448 468.692 410.024 469.028C410.6 469.356 411.24 469.52 411.944 469.52ZM412.04 468.344C411.288 468.344 410.688 468.108 410.24 467.636C409.8 467.164 409.58 466.524 409.58 465.716C409.58 464.924 409.8 464.292 410.24 463.82C410.688 463.348 411.288 463.112 412.04 463.112C412.384 463.112 412.716 463.172 413.036 463.292C413.356 463.404 413.628 463.564 413.852 463.772L413.564 464.42C413.1 464.044 412.616 463.856 412.112 463.856C411.6 463.856 411.204 464.016 410.924 464.336C410.652 464.656 410.516 465.116 410.516 465.716C410.516 466.324 410.652 466.792 410.924 467.12C411.204 467.44 411.6 467.6 412.112 467.6C412.616 467.6 413.1 467.412 413.564 467.036L413.852 467.684C413.62 467.892 413.344 468.056 413.024 468.176C412.704 468.288 412.376 468.344 412.04 468.344ZM423.128 462.296H420.152V461.456H427.1V462.296H424.124V470H423.128V462.296ZM432.301 466.952H427.873C427.881 467.72 428.057 468.3 428.401 468.692C428.753 469.084 429.261 469.28 429.925 469.28C430.629 469.28 431.277 469.044 431.869 468.572L432.193 469.28C431.929 469.528 431.589 469.724 431.173 469.868C430.765 470.012 430.345 470.084 429.913 470.084C428.969 470.084 428.229 469.808 427.693 469.256C427.157 468.696 426.889 467.932 426.889 466.964C426.889 466.348 427.009 465.804 427.249 465.332C427.489 464.852 427.825 464.48 428.257 464.216C428.689 463.952 429.181 463.82 429.733 463.82C430.533 463.82 431.161 464.084 431.617 464.612C432.073 465.132 432.301 465.852 432.301 466.772V466.952ZM429.745 464.576C429.241 464.576 428.829 464.728 428.509 465.032C428.197 465.336 427.997 465.764 427.909 466.316H431.425C431.377 465.748 431.209 465.316 430.921 465.02C430.641 464.724 430.249 464.576 429.745 464.576ZM435.816 470.084C434.8 470.084 433.996 469.824 433.404 469.304L433.728 468.584C434.056 468.84 434.388 469.024 434.724 469.136C435.06 469.248 435.436 469.304 435.852 469.304C436.308 469.304 436.652 469.228 436.884 469.076C437.124 468.916 437.244 468.688 437.244 468.392C437.244 468.152 437.164 467.96 437.004 467.816C436.844 467.672 436.58 467.56 436.212 467.48L435.192 467.24C434.688 467.128 434.296 466.928 434.016 466.64C433.744 466.352 433.608 466.008 433.608 465.608C433.608 465.08 433.82 464.652 434.244 464.324C434.668 463.988 435.228 463.82 435.924 463.82C436.348 463.82 436.748 463.888 437.124 464.024C437.5 464.16 437.816 464.356 438.072 464.612L437.748 465.32C437.18 464.848 436.572 464.612 435.924 464.612C435.492 464.612 435.156 464.696 434.916 464.864C434.684 465.024 434.568 465.252 434.568 465.548C434.568 465.796 434.64 465.992 434.784 466.136C434.936 466.28 435.176 466.392 435.504 466.472L436.524 466.724C437.084 466.852 437.5 467.052 437.772 467.324C438.044 467.588 438.18 467.936 438.18 468.368C438.18 468.888 437.968 469.304 437.544 469.616C437.12 469.928 436.544 470.084 435.816 470.084ZM440.966 464.732V468.032C440.966 468.48 441.058 468.796 441.242 468.98C441.426 469.156 441.686 469.244 442.022 469.244C442.246 469.244 442.462 469.208 442.67 469.136V469.964C442.422 470.044 442.142 470.084 441.83 470.084C441.254 470.084 440.802 469.924 440.474 469.604C440.154 469.276 439.994 468.796 439.994 468.164V464.732H438.818V463.964H439.994V462.416L440.966 462.068V463.964H442.694V464.732H440.966ZM443.986 461.456H444.97V470H443.986V461.456ZM452.095 469.856C452.447 470.488 452.963 471.092 453.643 471.668L452.959 472.292C452.623 472.036 452.287 471.708 451.951 471.308C451.615 470.916 451.323 470.504 451.075 470.072C450.899 470.088 450.759 470.096 450.655 470.096C449.863 470.096 449.175 469.92 448.591 469.568C448.007 469.216 447.555 468.712 447.235 468.056C446.923 467.392 446.767 466.616 446.767 465.728C446.767 464.832 446.923 464.056 447.235 463.4C447.547 462.744 447.995 462.24 448.579 461.888C449.163 461.536 449.855 461.36 450.655 461.36C451.455 461.36 452.147 461.536 452.731 461.888C453.315 462.24 453.763 462.744 454.075 463.4C454.387 464.056 454.543 464.828 454.543 465.716C454.543 466.764 454.327 467.648 453.895 468.368C453.471 469.08 452.871 469.576 452.095 469.856ZM447.775 465.716C447.775 466.844 448.027 467.716 448.531 468.332C449.035 468.948 449.743 469.256 450.655 469.256C451.559 469.256 452.263 468.948 452.767 468.332C453.271 467.716 453.523 466.844 453.523 465.716C453.523 464.588 453.271 463.72 452.767 463.112C452.271 462.504 451.567 462.2 450.655 462.2C449.743 462.2 449.035 462.508 448.531 463.124C448.027 463.732 447.775 464.596 447.775 465.716ZM456.91 468.764V470H455.674V468.764H456.91ZM463.478 463.976L460.874 470H459.95L457.382 463.976H458.402L460.442 468.944L462.506 463.976H463.478ZM467.561 463.82C469.009 463.82 469.733 464.616 469.733 466.208V470H468.761V466.256C468.761 465.696 468.649 465.288 468.425 465.032C468.201 464.768 467.849 464.636 467.369 464.636C466.809 464.636 466.361 464.808 466.025 465.152C465.689 465.496 465.521 465.96 465.521 466.544V470H464.549V465.656C464.549 465.032 464.517 464.468 464.453 463.964H465.377L465.473 465.044C465.657 464.652 465.933 464.352 466.301 464.144C466.669 463.928 467.089 463.82 467.561 463.82Z" fill="#828282"/>
<rect x="76" y="78" width="35.5449" height="35.5449" stroke="#2391AF" stroke-width="2"/>
<rect x="322" y="78" width="35.6626" height="35.6626" stroke="#2391AF" stroke-width="2"/>
<rect x="369.08" y="78" width="35.6626" height="35.6626" stroke="#2391AF" stroke-width="2"/>
<rect x="76" y="316" width="35.6626" height="35.6626" stroke="#2391AF" stroke-width="2"/>
<rect x="76" y="365.903" width="35.6626" height="35.6626" stroke="#2391AF" stroke-width="2"/>
<rect x="123.08" y="316" width="35.6626" height="35.6626" stroke="#2391AF" stroke-width="2"/>
<rect x="123.08" y="365.903" width="35.6626" height="35.6626" stroke="#2391AF" stroke-width="2"/>
<path d="M374.656 345.094C374.656 347.344 374.052 349.406 372.844 351.281C372.365 352.052 371.74 352.854 370.969 353.688L369.906 354.781L366.625 358.031C365.833 358.885 365.177 359.688 364.656 360.438C363.385 362.333 362.688 364.406 362.562 366.656H357.844V366.406C357.844 363.823 358.469 361.469 359.719 359.344C360.24 358.469 360.885 357.583 361.656 356.688C362.219 356.021 362.958 355.25 363.875 354.375L366.094 352.219C366.906 351.406 367.552 350.677 368.031 350.031C369.302 348.365 369.938 346.646 369.938 344.875C369.938 342.229 368.927 339.969 366.906 338.094C364.927 336.26 362.604 335.344 359.938 335.344C356.271 335.344 353.396 336.906 351.312 340.031C350.667 340.99 350.24 342.021 350.031 343.125C349.906 343.896 349.844 345.021 349.844 346.5H345.094V345.281C345.094 341.281 346.604 337.865 349.625 335.031C352.604 332.26 356.104 330.875 360.125 330.875C364.229 330.875 367.667 332.219 370.438 334.906C373.25 337.615 374.656 341.01 374.656 345.094ZM357.844 379V370.938H362.562V379H357.844Z" fill="#2391AF"/>
</svg>
