<svg width="960" height="480" viewBox="0 0 960 480" fill="none" xmlns="http://www.w3.org/2000/svg">
<path d="M889.839 103.882L901.822 136.265L901.981 136.696L902.413 136.856L934.796 148.839L902.413 160.822L901.981 160.981L901.822 161.413L889.839 193.796L877.856 161.413L877.696 160.981L877.265 160.822L844.882 148.839L877.265 136.856L877.696 136.696L877.856 136.265L889.839 103.882Z" stroke="#2391AF" stroke-width="2"/>
<path d="M600.839 108.236L610.628 138.365L610.853 139.056H611.579H643.259L617.63 157.676L617.042 158.103L617.266 158.794L627.056 188.923L601.427 170.303L600.839 169.876L600.251 170.303L574.622 188.923L584.411 158.794L584.636 158.103L584.048 157.676L558.419 139.056H590.098H590.825L591.049 138.365L600.839 108.236Z" stroke="#2391AF" stroke-width="2"/>
<path d="M743.839 261L754.579 294.056H789.336L761.217 314.485L771.958 347.541L743.839 327.112L715.72 347.541L726.46 314.485L698.341 294.056H733.098L743.839 261Z" fill="#2391AF"/>
<path d="M889.839 262.644L898.014 291.289L898.279 292.219L899.218 291.984L928.113 284.741L907.393 306.143L906.72 306.839L907.393 307.534L928.113 328.936L899.218 321.694L898.279 321.458L898.014 322.389L889.839 351.034L881.664 322.389L881.398 321.458L880.459 321.694L851.565 328.936L872.284 307.534L872.958 306.839L872.284 306.143L851.565 284.741L880.459 291.984L881.398 292.219L881.664 291.289L889.839 262.644Z" stroke="#2391AF" stroke-width="2"/>
<path d="M603.767 291.152L603.961 292.548L605.215 291.903L618.329 285.156L608.304 306.412L608.103 306.839L608.304 307.265L618.329 328.522L605.215 321.774L603.961 321.129L603.767 322.526L600.306 347.416L596.846 322.526L596.651 321.129L595.398 321.774L582.283 328.522L592.308 307.265L592.51 306.839L592.308 306.412L582.283 285.156L595.398 291.903L596.651 292.548L596.846 291.152L600.306 266.262L603.767 291.152Z" stroke="#2391AF" stroke-width="2"/>
<path d="M704.153 179.838L743.839 111.981L783.525 179.838H704.153Z" stroke="#2391AF" stroke-width="2"/>
<rect x="1" y="1" width="478" height="478" stroke="#E0E0E0" stroke-width="2"/>
<path d="M411.944 470.06C411.144 470.06 410.412 469.868 409.748 469.484C409.084 469.1 408.56 468.58 408.176 467.924C407.8 467.26 407.612 466.524 407.612 465.716C407.612 464.908 407.8 464.176 408.176 463.52C408.56 462.864 409.08 462.348 409.736 461.972C410.4 461.588 411.136 461.396 411.944 461.396C412.752 461.396 413.484 461.588 414.14 461.972C414.804 462.348 415.324 462.868 415.7 463.532C416.084 464.188 416.276 464.916 416.276 465.716C416.276 466.524 416.084 467.26 415.7 467.924C415.324 468.58 414.804 469.1 414.14 469.484C413.476 469.868 412.744 470.06 411.944 470.06ZM411.944 469.52C412.648 469.52 413.284 469.356 413.852 469.028C414.428 468.692 414.88 468.236 415.208 467.66C415.536 467.076 415.7 466.428 415.7 465.716C415.7 465.012 415.536 464.372 415.208 463.796C414.88 463.22 414.428 462.768 413.852 462.44C413.284 462.104 412.648 461.936 411.944 461.936C411.24 461.936 410.6 462.104 410.024 462.44C409.448 462.768 408.996 463.22 408.668 463.796C408.34 464.372 408.176 465.012 408.176 465.716C408.176 466.428 408.34 467.076 408.668 467.66C408.996 468.236 409.448 468.692 410.024 469.028C410.6 469.356 411.24 469.52 411.944 469.52ZM412.04 468.344C411.288 468.344 410.688 468.108 410.24 467.636C409.8 467.164 409.58 466.524 409.58 465.716C409.58 464.924 409.8 464.292 410.24 463.82C410.688 463.348 411.288 463.112 412.04 463.112C412.384 463.112 412.716 463.172 413.036 463.292C413.356 463.404 413.628 463.564 413.852 463.772L413.564 464.42C413.1 464.044 412.616 463.856 412.112 463.856C411.6 463.856 411.204 464.016 410.924 464.336C410.652 464.656 410.516 465.116 410.516 465.716C410.516 466.324 410.652 466.792 410.924 467.12C411.204 467.44 411.6 467.6 412.112 467.6C412.616 467.6 413.1 467.412 413.564 467.036L413.852 467.684C413.62 467.892 413.344 468.056 413.024 468.176C412.704 468.288 412.376 468.344 412.04 468.344ZM423.128 462.296H420.152V461.456H427.1V462.296H424.124V470H423.128V462.296ZM432.301 466.952H427.873C427.881 467.72 428.057 468.3 428.401 468.692C428.753 469.084 429.261 469.28 429.925 469.28C430.629 469.28 431.277 469.044 431.869 468.572L432.193 469.28C431.929 469.528 431.589 469.724 431.173 469.868C430.765 470.012 430.345 470.084 429.913 470.084C428.969 470.084 428.229 469.808 427.693 469.256C427.157 468.696 426.889 467.932 426.889 466.964C426.889 466.348 427.009 465.804 427.249 465.332C427.489 464.852 427.825 464.48 428.257 464.216C428.689 463.952 429.181 463.82 429.733 463.82C430.533 463.82 431.161 464.084 431.617 464.612C432.073 465.132 432.301 465.852 432.301 466.772V466.952ZM429.745 464.576C429.241 464.576 428.829 464.728 428.509 465.032C428.197 465.336 427.997 465.764 427.909 466.316H431.425C431.377 465.748 431.209 465.316 430.921 465.02C430.641 464.724 430.249 464.576 429.745 464.576ZM435.816 470.084C434.8 470.084 433.996 469.824 433.404 469.304L433.728 468.584C434.056 468.84 434.388 469.024 434.724 469.136C435.06 469.248 435.436 469.304 435.852 469.304C436.308 469.304 436.652 469.228 436.884 469.076C437.124 468.916 437.244 468.688 437.244 468.392C437.244 468.152 437.164 467.96 437.004 467.816C436.844 467.672 436.58 467.56 436.212 467.48L435.192 467.24C434.688 467.128 434.296 466.928 434.016 466.64C433.744 466.352 433.608 466.008 433.608 465.608C433.608 465.08 433.82 464.652 434.244 464.324C434.668 463.988 435.228 463.82 435.924 463.82C436.348 463.82 436.748 463.888 437.124 464.024C437.5 464.16 437.816 464.356 438.072 464.612L437.748 465.32C437.18 464.848 436.572 464.612 435.924 464.612C435.492 464.612 435.156 464.696 434.916 464.864C434.684 465.024 434.568 465.252 434.568 465.548C434.568 465.796 434.64 465.992 434.784 466.136C434.936 466.28 435.176 466.392 435.504 466.472L436.524 466.724C437.084 466.852 437.5 467.052 437.772 467.324C438.044 467.588 438.18 467.936 438.18 468.368C438.18 468.888 437.968 469.304 437.544 469.616C437.12 469.928 436.544 470.084 435.816 470.084ZM440.966 464.732V468.032C440.966 468.48 441.058 468.796 441.242 468.98C441.426 469.156 441.686 469.244 442.022 469.244C442.246 469.244 442.462 469.208 442.67 469.136V469.964C442.422 470.044 442.142 470.084 441.83 470.084C441.254 470.084 440.802 469.924 440.474 469.604C440.154 469.276 439.994 468.796 439.994 468.164V464.732H438.818V463.964H439.994V462.416L440.966 462.068V463.964H442.694V464.732H440.966ZM443.986 461.456H444.97V470H443.986V461.456ZM452.095 469.856C452.447 470.488 452.963 471.092 453.643 471.668L452.959 472.292C452.623 472.036 452.287 471.708 451.951 471.308C451.615 470.916 451.323 470.504 451.075 470.072C450.899 470.088 450.759 470.096 450.655 470.096C449.863 470.096 449.175 469.92 448.591 469.568C448.007 469.216 447.555 468.712 447.235 468.056C446.923 467.392 446.767 466.616 446.767 465.728C446.767 464.832 446.923 464.056 447.235 463.4C447.547 462.744 447.995 462.24 448.579 461.888C449.163 461.536 449.855 461.36 450.655 461.36C451.455 461.36 452.147 461.536 452.731 461.888C453.315 462.24 453.763 462.744 454.075 463.4C454.387 464.056 454.543 464.828 454.543 465.716C454.543 466.764 454.327 467.648 453.895 468.368C453.471 469.08 452.871 469.576 452.095 469.856ZM447.775 465.716C447.775 466.844 448.027 467.716 448.531 468.332C449.035 468.948 449.743 469.256 450.655 469.256C451.559 469.256 452.263 468.948 452.767 468.332C453.271 467.716 453.523 466.844 453.523 465.716C453.523 464.588 453.271 463.72 452.767 463.112C452.271 462.504 451.567 462.2 450.655 462.2C449.743 462.2 449.035 462.508 448.531 463.124C448.027 463.732 447.775 464.596 447.775 465.716ZM456.91 468.764V470H455.674V468.764H456.91ZM463.478 463.976L460.874 470H459.95L457.382 463.976H458.402L460.442 468.944L462.506 463.976H463.478ZM467.561 463.82C469.009 463.82 469.733 464.616 469.733 466.208V470H468.761V466.256C468.761 465.696 468.649 465.288 468.425 465.032C468.201 464.768 467.849 464.636 467.369 464.636C466.809 464.636 466.361 464.808 466.025 465.152C465.689 465.496 465.521 465.96 465.521 466.544V470H464.549V465.656C464.549 465.032 464.517 464.468 464.453 463.964H465.377L465.473 465.044C465.657 464.652 465.933 464.352 466.301 464.144C466.669 463.928 467.089 463.82 467.561 463.82Z" fill="#828282"/>
<path d="M414.656 390.094C414.656 392.344 414.052 394.406 412.844 396.281C412.365 397.052 411.74 397.854 410.969 398.688L409.906 399.781L406.625 403.031C405.833 403.885 405.177 404.688 404.656 405.438C403.385 407.333 402.688 409.406 402.562 411.656H397.844V411.406C397.844 408.823 398.469 406.469 399.719 404.344C400.24 403.469 400.885 402.583 401.656 401.688C402.219 401.021 402.958 400.25 403.875 399.375L406.094 397.219C406.906 396.406 407.552 395.677 408.031 395.031C409.302 393.365 409.938 391.646 409.938 389.875C409.938 387.229 408.927 384.969 406.906 383.094C404.927 381.26 402.604 380.344 399.938 380.344C396.271 380.344 393.396 381.906 391.312 385.031C390.667 385.99 390.24 387.021 390.031 388.125C389.906 388.896 389.844 390.021 389.844 391.5H385.094V390.281C385.094 386.281 386.604 382.865 389.625 380.031C392.604 377.26 396.104 375.875 400.125 375.875C404.229 375.875 407.667 377.219 410.438 379.906C413.25 382.615 414.656 386.01 414.656 390.094ZM397.844 424V415.938H402.562V424H397.844Z" fill="#2391AF"/>
<path d="M79.4522 33.8815L91.6008 66.7127L91.7604 67.144L92.1916 67.3035L125.023 79.4522L92.1916 91.6008L91.7604 91.7604L91.6008 92.1916L79.4522 125.023L67.3035 92.1916L67.144 91.7604L66.7127 91.6008L33.8815 79.4522L66.7127 67.3035L67.144 67.144L67.3035 66.7127L79.4522 33.8815Z" stroke="#2391AF" stroke-width="2"/>
<path d="M400.339 34.6439L408.631 63.699L408.896 64.6299L409.836 64.3945L439.144 57.048L418.127 78.7566L417.454 79.4522L418.127 80.1477L439.144 101.856L409.836 94.5098L408.896 94.2744L408.631 95.2053L400.339 124.26L392.047 95.2053L391.781 94.2744L390.842 94.5098L361.534 101.856L382.55 80.1477L383.224 79.4522L382.55 78.7566L361.534 57.048L390.842 64.3945L391.781 64.6299L392.047 63.699L400.339 34.6439Z" stroke="#2391AF" stroke-width="2"/>
<path d="M400.339 195.406L412.489 227.825L412.65 228.256L413.082 228.413L445.877 240.395L413.082 252.377L412.65 252.534L412.489 252.965L400.339 285.384L388.189 252.965L388.027 252.534L387.596 252.377L354.801 240.395L387.596 228.413L388.027 228.256L388.189 227.825L400.339 195.406Z" stroke="#2391AF" stroke-width="2"/>
<path d="M79.4522 195.755L89.3805 225.925L89.6067 226.612H90.3303H122.423L96.4705 245.229L95.8741 245.657L96.1035 246.354L106.023 276.498L80.035 257.855L79.4522 257.437L78.8693 257.855L52.8809 276.498L62.8008 246.354L63.0302 245.657L62.4338 245.229L36.4811 226.612H68.574H69.2976L69.5239 225.925L79.4522 195.755Z" stroke="#2391AF" stroke-width="2"/>
<path d="M239.394 355.8L251.375 388.595L251.533 389.026L251.963 389.188L284.383 401.338L251.963 413.488L251.533 413.649L251.375 414.081L239.394 446.876L227.412 414.081L227.254 413.649L226.824 413.488L194.404 401.338L226.824 389.188L227.254 389.026L227.412 388.595L239.394 355.8Z" stroke="#2391AF" stroke-width="2"/>
<path d="M239.394 34.2736L249.182 64.7851L249.405 65.4796H250.134H281.845L256.179 84.3657L255.6 84.7919L255.82 85.4766L265.616 116.014L239.986 97.1538L239.394 96.7177L238.801 97.1538L213.171 116.014L222.967 85.4766L223.187 84.7919L222.608 84.3657L196.942 65.4796H228.653H229.382L229.605 64.7851L239.394 34.2736Z" stroke="#2391AF" stroke-width="2"/>
<path d="M239.394 196.2L247.568 224.845L247.834 225.776L248.773 225.54L277.667 218.298L256.948 239.699L256.274 240.395L256.948 241.091L277.667 262.492L248.773 255.25L247.834 255.014L247.568 255.945L239.394 284.59L231.219 255.945L230.953 255.014L230.014 255.25L201.12 262.492L221.839 241.091L222.513 240.395L221.839 239.699L201.12 218.298L230.014 225.54L230.953 225.776L231.219 224.845L239.394 196.2Z" stroke="#2391AF" stroke-width="2"/>
<path d="M79.4522 356.53L87.7441 385.585L88.0098 386.516L88.9488 386.28L118.257 378.934L97.2408 400.642L96.5674 401.338L97.2408 402.033L118.257 423.742L88.9488 416.396L88.0098 416.16L87.7441 417.091L79.4522 446.146L71.1602 417.091L70.8945 416.16L69.9555 416.396L40.6471 423.742L61.6635 402.033L62.3369 401.338L61.6635 400.642L40.6471 378.934L69.9555 386.28L70.8945 386.516L71.1602 385.585L79.4522 356.53Z" stroke="#2391AF" stroke-width="2"/>
</svg>
