<svg width="960" height="480" viewBox="0 0 960 480" fill="none" xmlns="http://www.w3.org/2000/svg">
<path d="M889.934 107.547V190.913" stroke="#2391AF" stroke-width="2"/>
<path d="M932.025 148.813L848.66 148.813" stroke="#2391AF" stroke-width="2"/>
<rect x="848.303" y="148.633" width="59.194" height="59.194" transform="rotate(-45 848.303 148.633)" stroke="#2391AF" stroke-width="2"/>
<path d="M848.012 107.132L931.794 190.914" stroke="#2391AF" stroke-width="2"/>
<path d="M848.012 191.344L932.224 107.132" stroke="#2391AF" stroke-width="2"/>
<rect x="847" y="105" width="86.6869" height="86.6869" stroke="#2391AF" stroke-width="2"/>
<path d="M598.936 264.547V347.913" stroke="#2391AF" stroke-width="2"/>
<path d="M641.027 305.813L557.662 305.813" stroke="#2391AF" stroke-width="2"/>
<rect x="557.303" y="305.633" width="59.194" height="59.194" transform="rotate(-45 557.303 305.633)" stroke="#2391AF" stroke-width="2"/>
<path d="M557.012 263.01L641.224 347.221" stroke="#2391AF" stroke-width="2"/>
<rect x="556" y="262" width="86.6869" height="86.6869" stroke="#2391AF" stroke-width="2"/>
<path d="M743.936 264.547V347.913" stroke="#2391AF" stroke-width="2"/>
<path d="M786.027 305.813L702.662 305.813" stroke="#2391AF" stroke-width="2"/>
<rect x="702.303" y="305.633" width="59.194" height="59.194" transform="rotate(-45 702.303 305.633)" stroke="#2391AF" stroke-width="2"/>
<rect x="846.303" y="305.633" width="59.194" height="59.194" transform="rotate(-45 846.303 305.633)" stroke="#2391AF" stroke-width="2"/>
<path d="M846.012 263.01L930.224 347.221" stroke="#2391AF" stroke-width="2"/>
<path d="M600.369 107.661V191.913" stroke="#2391AF" stroke-width="2"/>
<path d="M642.914 149.365L558.661 149.365" stroke="#2391AF" stroke-width="2"/>
<path d="M556 105L642.47 191.47" stroke="#2391AF" stroke-width="2"/>
<rect x="700.381" y="105" width="86.6869" height="86.6869" stroke="#2391AF" stroke-width="2"/>
<path d="M702.516 107.132L786.298 190.914" stroke="#2391AF" stroke-width="2"/>
<path d="M702.516 191.344L786.728 107.132" stroke="#2391AF" stroke-width="2"/>
<rect x="1" y="1" width="478" height="478" stroke="#E0E0E0" stroke-width="2"/>
<path d="M411.944 470.06C411.144 470.06 410.412 469.868 409.748 469.484C409.084 469.1 408.56 468.58 408.176 467.924C407.8 467.26 407.612 466.524 407.612 465.716C407.612 464.908 407.8 464.176 408.176 463.52C408.56 462.864 409.08 462.348 409.736 461.972C410.4 461.588 411.136 461.396 411.944 461.396C412.752 461.396 413.484 461.588 414.14 461.972C414.804 462.348 415.324 462.868 415.7 463.532C416.084 464.188 416.276 464.916 416.276 465.716C416.276 466.524 416.084 467.26 415.7 467.924C415.324 468.58 414.804 469.1 414.14 469.484C413.476 469.868 412.744 470.06 411.944 470.06ZM411.944 469.52C412.648 469.52 413.284 469.356 413.852 469.028C414.428 468.692 414.88 468.236 415.208 467.66C415.536 467.076 415.7 466.428 415.7 465.716C415.7 465.012 415.536 464.372 415.208 463.796C414.88 463.22 414.428 462.768 413.852 462.44C413.284 462.104 412.648 461.936 411.944 461.936C411.24 461.936 410.6 462.104 410.024 462.44C409.448 462.768 408.996 463.22 408.668 463.796C408.34 464.372 408.176 465.012 408.176 465.716C408.176 466.428 408.34 467.076 408.668 467.66C408.996 468.236 409.448 468.692 410.024 469.028C410.6 469.356 411.24 469.52 411.944 469.52ZM412.04 468.344C411.288 468.344 410.688 468.108 410.24 467.636C409.8 467.164 409.58 466.524 409.58 465.716C409.58 464.924 409.8 464.292 410.24 463.82C410.688 463.348 411.288 463.112 412.04 463.112C412.384 463.112 412.716 463.172 413.036 463.292C413.356 463.404 413.628 463.564 413.852 463.772L413.564 464.42C413.1 464.044 412.616 463.856 412.112 463.856C411.6 463.856 411.204 464.016 410.924 464.336C410.652 464.656 410.516 465.116 410.516 465.716C410.516 466.324 410.652 466.792 410.924 467.12C411.204 467.44 411.6 467.6 412.112 467.6C412.616 467.6 413.1 467.412 413.564 467.036L413.852 467.684C413.62 467.892 413.344 468.056 413.024 468.176C412.704 468.288 412.376 468.344 412.04 468.344ZM423.128 462.296H420.152V461.456H427.1V462.296H424.124V470H423.128V462.296ZM432.301 466.952H427.873C427.881 467.72 428.057 468.3 428.401 468.692C428.753 469.084 429.261 469.28 429.925 469.28C430.629 469.28 431.277 469.044 431.869 468.572L432.193 469.28C431.929 469.528 431.589 469.724 431.173 469.868C430.765 470.012 430.345 470.084 429.913 470.084C428.969 470.084 428.229 469.808 427.693 469.256C427.157 468.696 426.889 467.932 426.889 466.964C426.889 466.348 427.009 465.804 427.249 465.332C427.489 464.852 427.825 464.48 428.257 464.216C428.689 463.952 429.181 463.82 429.733 463.82C430.533 463.82 431.161 464.084 431.617 464.612C432.073 465.132 432.301 465.852 432.301 466.772V466.952ZM429.745 464.576C429.241 464.576 428.829 464.728 428.509 465.032C428.197 465.336 427.997 465.764 427.909 466.316H431.425C431.377 465.748 431.209 465.316 430.921 465.02C430.641 464.724 430.249 464.576 429.745 464.576ZM435.816 470.084C434.8 470.084 433.996 469.824 433.404 469.304L433.728 468.584C434.056 468.84 434.388 469.024 434.724 469.136C435.06 469.248 435.436 469.304 435.852 469.304C436.308 469.304 436.652 469.228 436.884 469.076C437.124 468.916 437.244 468.688 437.244 468.392C437.244 468.152 437.164 467.96 437.004 467.816C436.844 467.672 436.58 467.56 436.212 467.48L435.192 467.24C434.688 467.128 434.296 466.928 434.016 466.64C433.744 466.352 433.608 466.008 433.608 465.608C433.608 465.08 433.82 464.652 434.244 464.324C434.668 463.988 435.228 463.82 435.924 463.82C436.348 463.82 436.748 463.888 437.124 464.024C437.5 464.16 437.816 464.356 438.072 464.612L437.748 465.32C437.18 464.848 436.572 464.612 435.924 464.612C435.492 464.612 435.156 464.696 434.916 464.864C434.684 465.024 434.568 465.252 434.568 465.548C434.568 465.796 434.64 465.992 434.784 466.136C434.936 466.28 435.176 466.392 435.504 466.472L436.524 466.724C437.084 466.852 437.5 467.052 437.772 467.324C438.044 467.588 438.18 467.936 438.18 468.368C438.18 468.888 437.968 469.304 437.544 469.616C437.12 469.928 436.544 470.084 435.816 470.084ZM440.966 464.732V468.032C440.966 468.48 441.058 468.796 441.242 468.98C441.426 469.156 441.686 469.244 442.022 469.244C442.246 469.244 442.462 469.208 442.67 469.136V469.964C442.422 470.044 442.142 470.084 441.83 470.084C441.254 470.084 440.802 469.924 440.474 469.604C440.154 469.276 439.994 468.796 439.994 468.164V464.732H438.818V463.964H439.994V462.416L440.966 462.068V463.964H442.694V464.732H440.966ZM443.986 461.456H444.97V470H443.986V461.456ZM452.095 469.856C452.447 470.488 452.963 471.092 453.643 471.668L452.959 472.292C452.623 472.036 452.287 471.708 451.951 471.308C451.615 470.916 451.323 470.504 451.075 470.072C450.899 470.088 450.759 470.096 450.655 470.096C449.863 470.096 449.175 469.92 448.591 469.568C448.007 469.216 447.555 468.712 447.235 468.056C446.923 467.392 446.767 466.616 446.767 465.728C446.767 464.832 446.923 464.056 447.235 463.4C447.547 462.744 447.995 462.24 448.579 461.888C449.163 461.536 449.855 461.36 450.655 461.36C451.455 461.36 452.147 461.536 452.731 461.888C453.315 462.24 453.763 462.744 454.075 463.4C454.387 464.056 454.543 464.828 454.543 465.716C454.543 466.764 454.327 467.648 453.895 468.368C453.471 469.08 452.871 469.576 452.095 469.856ZM447.775 465.716C447.775 466.844 448.027 467.716 448.531 468.332C449.035 468.948 449.743 469.256 450.655 469.256C451.559 469.256 452.263 468.948 452.767 468.332C453.271 467.716 453.523 466.844 453.523 465.716C453.523 464.588 453.271 463.72 452.767 463.112C452.271 462.504 451.567 462.2 450.655 462.2C449.743 462.2 449.035 462.508 448.531 463.124C448.027 463.732 447.775 464.596 447.775 465.716ZM456.91 468.764V470H455.674V468.764H456.91ZM463.478 463.976L460.874 470H459.95L457.382 463.976H458.402L460.442 468.944L462.506 463.976H463.478ZM467.561 463.82C469.009 463.82 469.733 464.616 469.733 466.208V470H468.761V466.256C468.761 465.696 468.649 465.288 468.425 465.032C468.201 464.768 467.849 464.636 467.369 464.636C466.809 464.636 466.361 464.808 466.025 465.152C465.689 465.496 465.521 465.96 465.521 466.544V470H464.549V465.656C464.549 465.032 464.517 464.468 464.453 463.964H465.377L465.473 465.044C465.657 464.652 465.933 464.352 466.301 464.144C466.669 463.928 467.089 463.82 467.561 463.82Z" fill="#828282"/>
<path d="M414.656 390.094C414.656 392.344 414.052 394.406 412.844 396.281C412.365 397.052 411.74 397.854 410.969 398.688L409.906 399.781L406.625 403.031C405.833 403.885 405.177 404.688 404.656 405.438C403.385 407.333 402.688 409.406 402.562 411.656H397.844V411.406C397.844 408.823 398.469 406.469 399.719 404.344C400.24 403.469 400.885 402.583 401.656 401.688C402.219 401.021 402.958 400.25 403.875 399.375L406.094 397.219C406.906 396.406 407.552 395.677 408.031 395.031C409.302 393.365 409.938 391.646 409.938 389.875C409.938 387.229 408.927 384.969 406.906 383.094C404.927 381.26 402.604 380.344 399.938 380.344C396.271 380.344 393.396 381.906 391.312 385.031C390.667 385.99 390.24 387.021 390.031 388.125C389.906 388.896 389.844 390.021 389.844 391.5H385.094V390.281C385.094 386.281 386.604 382.865 389.625 380.031C392.604 377.26 396.104 375.875 400.125 375.875C404.229 375.875 407.667 377.219 410.438 379.906C413.25 382.615 414.656 386.01 414.656 390.094ZM397.844 424V415.938H402.562V424H397.844Z" fill="#2391AF"/>
<path d="M79.1367 37.7644V121.575" stroke="#2391AF" stroke-width="2"/>
<path d="M121.457 79.2502L37.6461 79.2502" stroke="#2391AF" stroke-width="2"/>
<path d="M399.896 39.2966V120.14" stroke="#2391AF" stroke-width="2"/>
<path d="M440.646 79.2227L359.803 79.2227" stroke="#2391AF" stroke-width="2"/>
<rect x="358.49" y="79.0437" width="58.8732" height="58.8732" transform="rotate(-45 358.49 79.0437)" stroke="#2391AF" stroke-width="2"/>
<rect x="198.453" y="79.2288" width="58.8732" height="58.8732" transform="rotate(-45 198.453 79.2288)" stroke="#2391AF" stroke-width="2"/>
<path d="M239.855 359.604V442.532" stroke="#2391AF" stroke-width="2"/>
<path d="M281.73 400.653L198.802 400.653" stroke="#2391AF" stroke-width="2"/>
<rect x="198.453" y="400.473" width="58.8732" height="58.8732" transform="rotate(-45 198.453 400.473)" stroke="#2391AF" stroke-width="2"/>
<rect x="197.156" y="357.075" width="86.222" height="86.222" stroke="#2391AF" stroke-width="2"/>
<path d="M240.293 197.567V281.378" stroke="#2391AF" stroke-width="2"/>
<path d="M282.613 239.052L198.802 239.052" stroke="#2391AF" stroke-width="2"/>
<path d="M36.123 195.722L121.458 282.179" stroke="#2391AF" stroke-width="2"/>
<path d="M401.213 198.448V282.259" stroke="#2391AF" stroke-width="2"/>
<path d="M443.533 239.934L359.722 239.934" stroke="#2391AF" stroke-width="2"/>
<path d="M357.076 195.802L443.093 281.818" stroke="#2391AF" stroke-width="2"/>
<rect x="36" y="357.075" width="86.222" height="86.222" stroke="#2391AF" stroke-width="2"/>
<path d="M37.002 358.08L120.784 441.862" stroke="#2391AF" stroke-width="2"/>
<path d="M37.002 442.292L121.214 358.08" stroke="#2391AF" stroke-width="2"/>
</svg>
