<svg width="960" height="480" viewBox="0 0 960 480" fill="none" xmlns="http://www.w3.org/2000/svg">
<circle cx="80" cy="80" r="49" stroke="#2391AF" stroke-width="2"/>
<circle cx="80" cy="240" r="49" stroke="#2391AF" stroke-width="2"/>
<circle cx="80" cy="400" r="49" stroke="#2391AF" stroke-width="2"/>
<circle cx="240" cy="80" r="49" stroke="#2391AF" stroke-width="2"/>
<circle cx="240" cy="240" r="49" stroke="#2391AF" stroke-width="2"/>
<circle cx="240" cy="400" r="49" stroke="#2391AF" stroke-width="2"/>
<circle cx="400" cy="80" r="49" stroke="#2391AF" stroke-width="2"/>
<circle cx="400" cy="240" r="49" stroke="#2391AF" stroke-width="2"/>
<circle cx="889" cy="305" r="49" stroke="#2391AF" stroke-width="2"/>
<rect x="699" y="260" width="90" height="90" fill="#2391AF"/>
<rect x="849" y="105" width="83" height="83" stroke="#2391AF" stroke-width="2"/>
<rect x="542.414" y="305" width="76.9916" height="76.9916" transform="rotate(-45 542.414 305)" stroke="#2391AF" stroke-width="2"/>
<path d="M554.101 185.5L600 106L645.899 185.5H554.101Z" stroke="#2391AF" stroke-width="2"/>
<path d="M744 100.236L755.397 135.313L755.622 136.004H756.348H793.23L763.392 157.683L762.804 158.11L763.029 158.801L774.426 193.878L744.588 172.199L744 171.772L743.412 172.199L713.574 193.878L724.971 158.801L725.196 158.11L724.608 157.683L694.77 136.004H731.652H732.378L732.603 135.313L744 100.236Z" stroke="#2391AF" stroke-width="2"/>
<rect x="1" y="1" width="478" height="478" stroke="#E0E0E0" stroke-width="2"/>
<path d="M411.944 470.06C411.328 470.06 410.756 469.952 410.228 469.736C409.708 469.512 409.252 469.204 408.86 468.812C408.468 468.412 408.16 467.948 407.936 467.42C407.72 466.892 407.612 466.324 407.612 465.716C407.612 465.1 407.72 464.532 407.936 464.012C408.16 463.484 408.468 463.028 408.86 462.644C409.252 462.252 409.708 461.948 410.228 461.732C410.756 461.508 411.328 461.396 411.944 461.396C412.56 461.396 413.128 461.508 413.648 461.732C414.176 461.948 414.636 462.252 415.028 462.644C415.42 463.028 415.724 463.484 415.94 464.012C416.164 464.532 416.276 465.1 416.276 465.716C416.276 466.324 416.164 466.892 415.94 467.42C415.724 467.948 415.42 468.412 415.028 468.812C414.636 469.204 414.176 469.512 413.648 469.736C413.128 469.952 412.56 470.06 411.944 470.06ZM411.944 469.52C412.48 469.52 412.976 469.424 413.432 469.232C413.888 469.04 414.284 468.772 414.62 468.428C414.964 468.084 415.228 467.68 415.412 467.216C415.604 466.752 415.7 466.252 415.7 465.716C415.7 465.18 415.604 464.684 415.412 464.228C415.228 463.764 414.964 463.364 414.62 463.028C414.284 462.684 413.888 462.416 413.432 462.224C412.976 462.032 412.48 461.936 411.944 461.936C411.408 461.936 410.908 462.032 410.444 462.224C409.988 462.416 409.588 462.684 409.244 463.028C408.908 463.364 408.644 463.764 408.452 464.228C408.268 464.684 408.176 465.18 408.176 465.716C408.176 466.252 408.268 466.752 408.452 467.216C408.644 467.68 408.908 468.084 409.244 468.428C409.588 468.772 409.988 469.04 410.444 469.232C410.908 469.424 411.408 469.52 411.944 469.52ZM412.04 468.344C411.28 468.344 410.68 468.108 410.24 467.636C409.8 467.164 409.58 466.524 409.58 465.716C409.58 465.188 409.68 464.728 409.88 464.336C410.08 463.944 410.364 463.644 410.732 463.436C411.1 463.22 411.536 463.112 412.04 463.112C412.384 463.112 412.716 463.172 413.036 463.292C413.356 463.404 413.628 463.564 413.852 463.772L413.564 464.42C413.332 464.236 413.096 464.096 412.856 464C412.624 463.904 412.376 463.856 412.112 463.856C411.6 463.856 411.204 464.016 410.924 464.336C410.652 464.656 410.516 465.116 410.516 465.716C410.516 466.324 410.652 466.792 410.924 467.12C411.204 467.44 411.6 467.6 412.112 467.6C412.376 467.6 412.624 467.552 412.856 467.456C413.096 467.36 413.332 467.22 413.564 467.036L413.852 467.684C413.628 467.892 413.356 468.056 413.036 468.176C412.716 468.288 412.384 468.344 412.04 468.344ZM423.128 470V462.296H420.152V461.456H427.1V462.296H424.124V470H423.128ZM432.193 469.28C431.929 469.528 431.589 469.724 431.173 469.868C430.765 470.012 430.345 470.084 429.913 470.084C429.289 470.084 428.749 469.96 428.293 469.712C427.845 469.464 427.497 469.108 427.249 468.644C427.009 468.172 426.889 467.612 426.889 466.964C426.889 466.34 427.009 465.792 427.249 465.32C427.489 464.848 427.821 464.48 428.245 464.216C428.677 463.952 429.173 463.82 429.733 463.82C430.269 463.82 430.729 463.94 431.113 464.18C431.497 464.412 431.789 464.748 431.989 465.188C432.197 465.628 432.301 466.156 432.301 466.772V466.952H427.741V466.316H431.749L431.437 466.76C431.453 466.056 431.313 465.516 431.017 465.14C430.729 464.764 430.305 464.576 429.745 464.576C429.161 464.576 428.701 464.784 428.365 465.2C428.037 465.608 427.873 466.176 427.873 466.904C427.873 467.688 428.045 468.28 428.389 468.68C428.741 469.08 429.253 469.28 429.925 469.28C430.277 469.28 430.613 469.224 430.933 469.112C431.261 468.992 431.573 468.812 431.869 468.572L432.193 469.28ZM435.816 470.084C434.8 470.084 433.996 469.824 433.404 469.304L433.728 468.584C434.048 468.832 434.376 469.016 434.712 469.136C435.056 469.248 435.436 469.304 435.852 469.304C436.308 469.304 436.652 469.228 436.884 469.076C437.124 468.916 437.244 468.688 437.244 468.392C437.244 468.152 437.164 467.964 437.004 467.828C436.844 467.684 436.58 467.568 436.212 467.48L435.192 467.24C434.688 467.128 434.296 466.928 434.016 466.64C433.744 466.352 433.608 466.008 433.608 465.608C433.608 465.256 433.704 464.948 433.896 464.684C434.088 464.412 434.356 464.2 434.7 464.048C435.044 463.896 435.452 463.82 435.924 463.82C436.348 463.82 436.748 463.888 437.124 464.024C437.5 464.16 437.816 464.356 438.072 464.612L437.748 465.32C437.46 465.08 437.164 464.904 436.86 464.792C436.564 464.672 436.252 464.612 435.924 464.612C435.492 464.612 435.156 464.696 434.916 464.864C434.684 465.032 434.568 465.26 434.568 465.548C434.568 465.796 434.64 465.992 434.784 466.136C434.936 466.28 435.176 466.392 435.504 466.472L436.524 466.724C437.092 466.844 437.508 467.044 437.772 467.324C438.044 467.596 438.18 467.944 438.18 468.368C438.18 468.888 437.968 469.304 437.544 469.616C437.12 469.928 436.544 470.084 435.816 470.084ZM438.818 464.732V463.964H442.694V464.732H438.818ZM442.67 469.136V469.964C442.534 470.004 442.398 470.032 442.262 470.048C442.134 470.072 441.99 470.084 441.83 470.084C441.27 470.084 440.822 469.924 440.486 469.604C440.158 469.284 439.994 468.804 439.994 468.164V462.416L440.966 462.068V468.032C440.966 468.352 441.01 468.6 441.098 468.776C441.194 468.952 441.322 469.076 441.482 469.148C441.642 469.212 441.822 469.244 442.022 469.244C442.142 469.244 442.25 469.236 442.346 469.22C442.442 469.204 442.55 469.176 442.67 469.136ZM443.986 470V461.456H444.97V470H443.986ZM452.959 472.292C452.615 472.036 452.275 471.704 451.939 471.296C451.603 470.888 451.311 470.472 451.063 470.048L452.023 469.724C452.231 470.132 452.475 470.492 452.755 470.804C453.035 471.116 453.331 471.404 453.643 471.668L452.959 472.292ZM450.655 470.096C449.855 470.096 449.163 469.92 448.579 469.568C448.003 469.216 447.555 468.712 447.235 468.056C446.923 467.4 446.767 466.624 446.767 465.728C446.767 464.824 446.923 464.048 447.235 463.4C447.547 462.744 447.991 462.24 448.567 461.888C449.151 461.536 449.847 461.36 450.655 461.36C451.455 461.36 452.147 461.536 452.731 461.888C453.315 462.24 453.763 462.744 454.075 463.4C454.387 464.048 454.543 464.82 454.543 465.716C454.543 466.62 454.383 467.4 454.063 468.056C453.751 468.712 453.303 469.216 452.719 469.568C452.143 469.92 451.455 470.096 450.655 470.096ZM450.655 469.256C451.559 469.256 452.263 468.952 452.767 468.344C453.271 467.728 453.523 466.852 453.523 465.716C453.523 464.58 453.271 463.712 452.767 463.112C452.263 462.504 451.559 462.2 450.655 462.2C449.751 462.2 449.043 462.504 448.531 463.112C448.027 463.72 447.775 464.588 447.775 465.716C447.775 466.844 448.027 467.716 448.531 468.332C449.043 468.948 449.751 469.256 450.655 469.256ZM455.674 468.764H456.91V470H455.674V468.764ZM459.95 470L457.382 463.976H458.402L460.586 469.292H460.298L462.506 463.976H463.478L460.874 470H459.95ZM464.549 470V465.656C464.549 465.376 464.541 465.096 464.525 464.816C464.517 464.528 464.493 464.244 464.453 463.964H465.377L465.485 465.212L465.365 465.308C465.533 464.82 465.813 464.452 466.205 464.204C466.597 463.948 467.049 463.82 467.561 463.82C469.009 463.82 469.733 464.616 469.733 466.208V470H468.761V466.256C468.761 465.696 468.649 465.288 468.425 465.032C468.201 464.768 467.849 464.636 467.369 464.636C466.809 464.636 466.361 464.808 466.025 465.152C465.689 465.496 465.521 465.96 465.521 466.544V470H464.549Z" fill="#828282"/>
<path d="M414.656 390.094C414.656 392.344 414.052 394.406 412.844 396.281C412.365 397.052 411.74 397.854 410.969 398.688L409.906 399.781L406.625 403.031C405.833 403.885 405.177 404.688 404.656 405.438C403.385 407.333 402.688 409.406 402.562 411.656H397.844V411.406C397.844 408.823 398.469 406.469 399.719 404.344C400.24 403.469 400.885 402.583 401.656 401.688C402.219 401.021 402.958 400.25 403.875 399.375L406.094 397.219C406.906 396.406 407.552 395.677 408.031 395.031C409.302 393.365 409.938 391.646 409.938 389.875C409.938 387.229 408.927 384.969 406.906 383.094C404.927 381.26 402.604 380.344 399.938 380.344C396.271 380.344 393.396 381.906 391.312 385.031C390.667 385.99 390.24 387.021 390.031 388.125C389.906 388.896 389.844 390.021 389.844 391.5H385.094V390.281C385.094 386.281 386.604 382.865 389.625 380.031C392.604 377.26 396.104 375.875 400.125 375.875C404.229 375.875 407.667 377.219 410.438 379.906C413.25 382.615 414.656 386.01 414.656 390.094ZM397.844 424V415.938H402.562V424H397.844Z" fill="#2391AF"/>
</svg>
